<?xml version="1.0" encoding="utf-8"?>
<!-- Generator: Adobe Illustrator 16.0.0, SVG Export Plug-In . SVG Version: 6.00 Build 0)  -->
<!DOCTYPE svg PUBLIC "-//W3C//DTD SVG 1.1//EN" "http://www.w3.org/Graphics/SVG/1.1/DTD/svg11.dtd">
<svg version="1.1" id="Capa_0_xA0_Imagen_1_" xmlns="http://www.w3.org/2000/svg" xmlns:xlink="http://www.w3.org/1999/xlink"
	 x="0px" y="0px" width="339.281px" height="268.666px" viewBox="0 0 339.281 268.666" enable-background="new 0 0 339.281 268.666"
	 xml:space="preserve">
<g>
	<path fill-rule="evenodd" clip-rule="evenodd" fill="#02B1BF" d="M338.527,10.094c-0.49,2.048-0.982,4.095-1.473,6.143
		c-1.643,0.549-3.299,0.948-5.035,0.407c-0.332-0.133-0.629-0.321-0.898-0.556c-1.189-1.306-1.426-3.008-1.908-4.608
		c-0.396-1.318-0.877-2.537-2.582-2.507c-2.141-0.378-4.553,0.613-6.383-1.273c3.73-1.18,7.701-0.404,11.453-1.411
		c1.404-0.863,3.119,0.252,4.506-0.71c0.75,0,1.5,0,2.25,0C339.055,7.075,338.961,8.583,338.527,10.094z"/>
	<path fill-rule="evenodd" clip-rule="evenodd" fill="#DFF4F5" d="M336.207,5.579c-1.318,1.403-2.986,0.583-4.506,0.71
		c0.002-0.237,0.004-0.474,0.006-0.71C333.207,5.579,334.707,5.579,336.207,5.579z"/>
	<path fill-rule="evenodd" clip-rule="evenodd" fill="#DCF0F1" d="M338.527,10.094c-0.023-1.505-0.047-3.011-0.07-4.516
		c1.543,1.285,0.373,3.021,0.75,4.5l-0.34,0.016L338.527,10.094z"/>
	<path fill-rule="evenodd" clip-rule="evenodd" fill="#026B88" d="M215.523,127.077c0,0.242-0.002,0.485-0.002,0.728
		c-1.035,6.278-0.158,12.603-0.451,18.901c0,8.416,0.002,16.832,0,25.246c0.174,7.06-0.354,14.129,0.291,21.18
		c0.139,1.52,0.113,3.043,0.021,4.565c-0.855,2.934-3.01,5.092-4.643,7.551c-0.623,0.938-1.568,2.063-3.08,1.196
		c-1.775-2.549-0.879-5.867-2.453-8.475c-1.789-1.738-3.396-3.786-5.68-4.807c-2.953-1.318-3.104-3.641-2.736-6.208
		c1.182-8.244,1.035-16.523,0.934-24.806c-0.189-0.498-0.637,0.169-0.191-0.058c0.125-0.063,0.223,0.04,0.209,0.306
		c-0.107,2.31,0.629,4.67-0.416,6.922c-0.482-7.475-0.963-14.948-1.445-22.422c-0.143-3.815-1.07-7.56-1.043-11.383
		c2.645-3.659,2.277-8.176,3.449-12.264c0.135-0.369,0.346-0.682,0.629-0.952c1.709-0.959,3.348-0.272,4.949,0.279
		c3.58,1.233,7.104,2.628,10.709,3.788C214.904,126.585,215.221,126.823,215.523,127.077z"/>
	<path fill-rule="evenodd" clip-rule="evenodd" fill="#066885" d="M191.533,112.308c-0.676,9.158-1.215,18.308-0.23,27.491
		c0.316,2.953,1.391,5.82,1.02,8.848c0.279,3.748,0.836,7.543-1.811,10.801c-2.748-0.316-3.896-2.281-4.688-4.592
		c-1.801-5.248-4.396-10.201-5.77-15.609c-0.402-1.584-1.438-2.851-2.348-4.175c-1.102-3.272-0.314-6.642-0.42-9.954
		c-0.229-7.19-0.111-14.394-0.051-21.585c0.023-0.606,0.027-1.294,0.41-1.749c2.877-3.42,2.641-6.702-0.328-9.915
		c0.33-5.214-0.168-10.42-0.094-15.628c0.02-1.347-0.295-2.757,0.512-4.013c0.828-0.7,1.807-0.759,2.807-0.612
		c3.807,0.559,7.418,1.904,11.135,2.821c0.863,0.212,1.545,0.774,1.799,1.703c0.273,1.772-0.814,3.062-1.598,4.462
		c-2.252,4.025-4.535,8.034-6.867,12.012c-1.188,2.024-1.064,3.752,0.76,5.312c0.566,0.484,0.996,1.147,1.6,1.57
		C191.996,102.726,192.699,107.208,191.533,112.308z"/>
	<path fill-rule="evenodd" clip-rule="evenodd" fill="#1B85A1" d="M214.707,127.077c-3.73-0.317-6.939-2.258-10.424-3.339
		c-1.744-0.541-3.422-1.371-5.328-1.162c-1.508,1.233-3.016,0.766-4.523,0.001c0.328-15.628,3.734-30.606,9.551-45.072
		c1.984-2.366,3.129-2.189,4.32,1.085c2.082,5.725,3.666,11.63,5.934,17.29c0.855,2.136,1.363,4.244,1.219,6.526
		C214.752,110.62,215.486,118.871,214.707,127.077z"/>
	<path fill-rule="evenodd" clip-rule="evenodd" fill="#1D727A" d="M13.662,91.812c5.878-10.711,14.196-19.413,22.936-27.755
		c1.958-1.869,3.706-4.006,6.146-5.328c1.078,1.376,1.089,1.431-0.184,2.771c-1.354,1.426-3.334,2.232-4.267,4.363
		c1.443,1.264,2.784,0.234,4.074-0.19c5.873-1.936,7.404-0.863,7.55,5.381c0.026,1.124,0.07,2.244,0.224,3.36
		c-0.034,1.957-1.213,3.489-1.912,5.202c-1.866,3.742-3.728,7.485-5.628,11.209c-0.662,1.299-1.217,2.743-2.899,3.117
		c-2.849,0.172-5.66,0.111-8.377-0.969c-4.38-1.742-8.751-0.497-13.126,0.113C16.529,93.318,14.699,93.922,13.662,91.812z"/>
	<path fill-rule="evenodd" clip-rule="evenodd" fill="#0C8994" d="M155.188,23.443c2.964-0.903,6.009-0.718,9.044-0.683
		c3.973-0.5,3.645-0.52,3.432,2.962c-0.291,4.787-0.58,9.722,3.676,13.391c5.426,4.677,8.744,3.981,11.48-2.55
		c1.814-1.724,4.256-1.368,6.418-1.942c1.893-0.074,3.803-0.344,5.615,0.49c0.881,3.043-2.357,15.314-4.693,17.089
		c-1.557,1.183-2.66,2.561-3.236,4.396c-0.967,1.945-2.877,2.163-4.695,2.603c-2.906,0.702-5.855,1.223-8.74,2.002
		c-1.318,0.355-2.797,0.752-3.117,2.327c-0.332,1.631,1.117,2.292,2.082,3.246c1.373,1.358,4.166,1.466,3.902,4.306
		c-4.225,0.712-8.861-2.815-9.109-6.927c-0.137-2.27,0.398-4.447,0.971-6.608c0.68-2.573,0.301-4.892-1.318-7.04
		c-2.404-3.187-3.525-7.079-5.73-10.417c-1.432-2.166-1.27-4.932-1.049-7.607c0.223-2.699,0.85-5.65-1.664-7.833
		C157.275,24.478,155.994,24.6,155.188,23.443z"/>
	<path fill-rule="evenodd" clip-rule="evenodd" fill="#038F9F" d="M328.756,33.45c-4.385,5.921-10.598,9.109-17.313,11.518
		c-1.965,0.705-3.99,1.245-5.988,1.861c2.068-6.92,1.113-13.953,0.738-20.956c-0.176-3.317-1.043-6.658,0.627-9.852
		c3.305-1.848,6.83-0.892,10.285-0.811c4.396,2.415,8.104,5.752,11.898,8.987c0.232,0.348,0.396,0.723,0.508,1.125
		C329.93,28.095,330.006,30.835,328.756,33.45z"/>
	<path fill-rule="evenodd" clip-rule="evenodd" fill="#0391A0" d="M255.877,38.1c-5.828-2.291-11.658-4.582-17.488-6.872
		c1.738-1.766,3.443-0.134,5.164,0.036c0.016-5.394-3.303-9.509-5.469-14.066c-0.338-0.711-1.154-0.887-1.811-1.22
		c-0.326-0.179-0.576-0.433-0.768-0.747c2.441-0.832,4.963-0.817,7.492-0.719c2.109-0.624,4.268-0.154,6.393-0.29
		c0.268,0.052,0.586,0.316,0.574,0.326c-3.305,2.639-0.654,5.936-0.76,8.847c-0.09,2.52,2.24,3.704,4.869,3.37
		c1.375-0.174,2.641-0.776,3.885-1.347c9.814-4.506,20.191-7.246,30.648-9.702c3.773-0.887,7.631-1.214,11.438,0.064
		c0.711,0.828,0.174,1.444-0.344,2.065c-11.848,5.457-23.992,10.231-35.936,15.478C260.912,34.576,258.018,35.7,255.877,38.1z"/>
	<path fill-rule="evenodd" clip-rule="evenodd" fill="#0E8A95" d="M176.455,70.83c-1.701-1.228-3.348-2.541-5.121-3.657
		c-1.473-0.928-2.65-1.953-2.324-3.845c0.32-1.865,1.881-2.553,3.438-2.938c3.475-0.858,6.98-1.605,10.494-2.282
		c1.256-0.242,2.422-0.492,3.266-1.528c3.666-1.679,7.705-1.385,11.535-2.191c4.068-0.312,8.08,0.733,12.146,0.488
		c1.396,0.093,2.699,0.712,4.113,0.723c0.6,0.065,1.18,0.212,1.729,0.469c2.352,2.502,1.805,5.298,0.432,7.886
		c-1.555,2.927-4.178,1.931-6.59,1.243c-1.754-0.476-3.473-0.809-4.559,1.224c-1.244,2.783-2.486,5.566-3.73,8.35
		c-1.701-2.801,0.449-5.038,1.078-7.49c0.422-1.667-0.863-1.424-1.756-1.494c-1.344-0.105-2.682,0.011-3.977,0.448
		c-0.516,0.137-1.039,0.218-1.568,0.261c-2.67,0.084-5.33,0.197-7.701,1.654c-3.059,1.776-6.66,2.283-9.684,4.139
		c-0.189,0.51-0.41,0.975-1.1,0.78c-1.086-1.426-2.631-0.212-3.883-0.674C173.104,69.843,175.508,72.089,176.455,70.83z"/>
	<path fill-rule="evenodd" clip-rule="evenodd" fill="#0AA0AF" d="M231.199,31.784c11.334,2.712,22.025,6.942,31.756,13.443
		c-1.887,2.157-4.871,1.285-7.596,2.628c3.342,3.464,6.805,6.259,10.537,8.75c0.295,0.206,0.523,0.47,0.693,0.785
		c-8.438,2.085-17.033,3.245-25.629,4.411c-0.988-1.567-0.553-3.126,0.129-4.62c1.094-2.393,1.037-5.112,2.191-7.478
		c2.031-2.23,4.861-1.868,7.5-2.474c-2.268-2.593-5.283-4.462-7.994-6.684c-1.543-1.401-2.963-2.961-5.279-4.008
		c-1.244,5.383-3.051,10.464-4.891,15.537c-0.242,0.522-0.609,0.919-1.156,1.13c-0.377,0.083-0.75,0.07-1.121-0.03
		c-1.73-1.074-3.877-1.78-3.916-4.373C229.242,43.476,228.961,37.276,231.199,31.784z"/>
	<path fill-rule="evenodd" clip-rule="evenodd" fill="#038F9D" d="M255.877,38.1c-0.125-1.582,0.625-2.543,2.061-3.158
		c11.662-4.998,23.26-10.154,35.018-14.915c2.113-0.855,3.893-2.871,6.502-2.448c0.402,2.001-1.268,2.841-2.332,3.918
		c-7.34,7.418-14.605,14.912-22.15,22.122c-2.146,2.051-2.188,3.411,0.113,5.334c1.896,1.586,3.908,3.034,5.754,4.682
		c-1.547,1.018-2.959,1.075-4.301-0.419C270.715,46.73,263.518,42.11,255.877,38.1z"/>
	<path fill-rule="evenodd" clip-rule="evenodd" fill="#038D9B" d="M280.842,53.634c-4.297-0.429-6.037-4.445-9.086-6.62
		c-1.289-0.919,0.578-1.878,1.248-2.556c7.887-7.967,15.834-15.873,23.746-23.814c0.961-0.964,1.809-2.042,2.707-3.066
		c0.25-0.5,0.5-1,0.75-1.5c0.367-0.216,0.703-0.177,1.012,0.116c1.254,2.288,0.088,4.346-0.652,6.422
		c-3.34,9.348-5.662,19.063-10.137,28.002c-0.1,0.199,0.012,0.489,0.064,0.733C287.389,52.583,284.188,53.417,280.842,53.634z"/>
	<path fill-rule="evenodd" clip-rule="evenodd" fill="#2C838F" d="M20.321,39.258c4.933-4.101,11.078-2.947,16.735-3.502
		c1.313-0.128,2.38-0.698,3.604-0.808c6.191-0.556,12.38-1.125,18.571-1.69c1.077-0.416,2.135-0.425,4.128,0.411
		c-4.45,1.554-4.678,4.541-3.912,7.888c-4.236,3.275-8.473,6.551-12.709,9.826c-1.005,0.071-1.979-0.052-2.893-0.497
		c-7.455-3.626-15.001-7.058-22.498-10.594C20.889,40.076,20.555,39.71,20.321,39.258z"/>
	<path fill-rule="evenodd" clip-rule="evenodd" fill="#0D8690" d="M176.455,70.83c-0.877,1.428-2.924,0.044-3.762,1.564
		c-2.416,0.897-4.969,0.985-7.486,1.29c-1.193-1.277-1.283-2.959-1.543-4.534c-0.564-3.417-1.846-6.479-4.201-9.022
		c-1.982-2.142-3.011-4.556-2.609-7.501c-0.248-4.525-1.516-8.817-2.914-13.085c-1.457-4.448-0.238-8.895,0.182-13.311
		c0.295-3.09,3.352-1.783,5.074-2.637c0.586,0.07,1.715-0.104,1.613,0.449c-0.553,2.998,1.262,5.806,0.473,8.823
		c-0.855,3.276,0.094,6.052,2.066,8.924c2.352,3.422,3.857,7.397,6.051,10.995c1.371,2.25-0.242,5.072-0.836,7.593
		C167.129,66.455,170.082,70.375,176.455,70.83z"/>
	<path fill-rule="evenodd" clip-rule="evenodd" fill="#1D7178" d="M13.662,91.812c2.784,1.708,5.676,0.18,8.25-0.313
		c2.787-0.534,5.157-0.512,7.846,0.179c3.323,0.853,6.794,1.127,10.202,1.652c1.142,1.71-0.224,2.992-0.816,4.354
		c-0.919,2.113-2.3,4.002-3.104,6.179c-1.595,3.005-2.809,6.231-5.068,8.857c-6.732-2.624-12.198-6.842-16.934-12.341
		C11.354,97.264,10.896,94.802,13.662,91.812z"/>
	<path fill-rule="evenodd" clip-rule="evenodd" fill="#04A8B4" d="M169.059,167.787c-1.266,2.9-3.486,4.917-6.082,6.589
		c-1.129,0.254-1.938-0.108-2.365-1.221c-0.982-2.549-3.103-3.77-5.475-4.719c-8.76-3.506-16.875-8.432-25.927-11.359
		c-4.931-1.595-9.055-5.123-13.818-7.275c-1.009-0.456-1.838-1.291-2.038-2.517c2.008-1.748,4.015-3.497,6.023-5.245
		c7.709,6.149,17.097,9.191,25.846,13.232c7.361,3.399,14.787,6.92,22.543,9.52C168.846,165.51,169.406,166.454,169.059,167.787z"/>
	<path fill-rule="evenodd" clip-rule="evenodd" fill="#038A98" d="M290.494,51.352c-0.52-0.377-2.592,0.831-1.309-1.393
		c3.363-5.825,5.949-11.975,7.326-18.586c1.086-5.216,4.523-9.744,4.445-15.295c1.74-1.414,3.619-1.154,5.535-0.457
		c0.156,0.15,0.313,0.303,0.469,0.455c-0.127,8.465,1.154,16.88,0.838,25.366c-0.086,2.302-0.322,4.122-2.344,5.387
		c-2.316,1.081-4.67,2.046-7.24,2.335c-2.645,0.515-5.324,0.899-7.748,2.193L290.494,51.352z"/>
	<path fill-rule="evenodd" clip-rule="evenodd" fill="#1D7693" d="M190.561,210.309c-0.082,2.368-0.451,4.685-1.264,6.92
		c-0.484-0.337-0.441-0.84-0.416-1.336c0.412,0.283,0.395-0.682,0.393-0.679c-0.654,1.659-0.512,2.864-0.26,4.076
		c-0.758,5.377-2.055,10.627-3.709,15.793c-1.752,2.576-4.551,2.394-7.15,2.647c-0.818,0.08-1.277-0.555-1.256-1.422
		c0.662-4.054,0.15-8.138,0.313-12.203c0-1.061,0-2.12,0-3.18c0-1.243,0-2.488,0-3.731c0.023-1.602-0.057-3.207,0.078-4.807
		c3.018-6.138,7.867-10.944,11.953-16.302c0.525-0.688,1.436-1.498,2.51-0.531c0.082,1.172,0.17,2.344-0.088,3.508
		C191.504,202.833,190.238,206.493,190.561,210.309z"/>
	<path fill-rule="evenodd" clip-rule="evenodd" fill="#079EAD" d="M151.702,178.054c-2.967,0.697-5.933,1.407-9.002,1.482
		c-8.976-3.627-17.461-8.316-26.438-11.991c-5.45-2.231-10.562-5.473-15.789-8.327c-2.014-1.1-3.071-2.586-0.706-4.488
		c2.19-1.266,4.379-2.534,6.896-3.067c2.072,2.796,4.745,4.756,8.095,5.734c2.438,0.712,4.6,2.022,6.646,3.41
		c5.753,3.899,12.416,5.772,18.683,8.484c4.376,1.895,7.702,5.005,11.378,7.748C151.771,177.267,151.813,177.67,151.702,178.054z"/>
	<path fill-rule="evenodd" clip-rule="evenodd" fill="#0E6E77" d="M91.711,82.052c-1.977,0.489-3.955,0.967-6.02,0.703
		c-1.541-0.381-2.341-1.257-2.092-2.942c0.238-1.611,0.6-3.157,1.336-4.64c2.464-4.963,2.986-10.006,1.271-15.434
		c-1.237-3.915,0.325-7.939,1.172-11.75c1.059-4.765,2.375-9.387,1.316-14.309c-0.129-0.604,0.114-1.231,0.437-1.785
		c0.934-1.109,2.379-0.628,3.508-1.131c1.411,0.182,2.819-0.682,4.232-0.018c1.878,3.099,0.232,6.096-0.593,8.938
		c-0.887,3.055-1.229,6.068-1.221,9.189c0.003,1.135-0.134,2.391,0.709,3.2c2.402,2.304,1.835,4.899,1.099,7.631
		c-0.941,3.488-1.881,6.962-3.108,10.373c-1.046,2.911-1.692,5.989-0.062,8.991C96.684,82.493,92.638,81.231,91.711,82.052z"/>
	<path fill-rule="evenodd" clip-rule="evenodd" fill="#05A4B1" d="M113.353,147.285c7.119,3.85,13.876,8.256,21.646,11.021
		c8.105,2.883,15.762,7.027,23.613,10.626c2.363,1.083,2.205,4.193,4.365,5.444c-1.676,1.668-3.551,2.916-6.043,2.852
		c-1.797-0.233-3.361-0.834-4.102-2.674c-1.104-2.742-3.499-3.568-6.056-4.439c-12.99-4.427-25.161-10.673-37.252-17.076
		c-0.869-0.461-1.723-1.021-2.157-1.991C109.362,149.792,111.358,148.539,113.353,147.285z"/>
	<path fill-rule="evenodd" clip-rule="evenodd" fill="#0E747D" d="M101.5,29.582c4.095-1.493,8.475-0.751,12.65-1.613
		c-2.146,6.322-0.934,12.98-1.942,19.417c-0.116,0.737-0.037,1.554-0.388,2.196c-2.418,4.421-2.712,8.938-0.917,13.654
		c0.403,1.058-0.012,2.218-0.331,3.3c-0.353,1.196-0.795,2.361-1.233,3.527c-1.45,3.866-1.368,7.321,2.612,9.729
		c-0.631,0.041-1.262,0.081-1.893,0.121c-1.789,0.773-3.837-0.366-5.578,0.758l0.058-0.027c-0.399,0.226-0.806,0.241-1.221,0.049
		c-3.258-0.565-3.301-3.058-2.403-5.154c1.832-4.271,2.039-8.421,0.55-12.758c-0.282-0.823-0.296-1.78-0.004-2.599
		c2.223-6.233,1.559-12.854,2.635-19.231c0.074-1.969-0.239-4.018,0.253-5.899C105.095,32.188,104.86,30.158,101.5,29.582z"/>
	<path fill-rule="evenodd" clip-rule="evenodd" fill="#036581" d="M206.457,197.579c1.041,2.909,1.055,5.99,1.5,8.998
		c0.262,0.263,0.41,0.575,0.428,0.947c-1.35,3.522-3.967,6.243-5.945,9.369c-0.922,1.453-2.279,2.659-2.488,4.506
		c-0.277,2.443-1.229,4.677-2.133,6.927c-0.91,1.095-2.213,1.419-3.494,1.786c-2.643,1.222-3.818,0.375-3.529-2.517
		c0.93-4.568,1.859-9.138,2.789-13.706c0.457,0.312,0.621,0.649,0.092,1.049c0.482-0.136,0.42-0.541,0.41-0.891
		c-0.018-0.738,0.129-1.495-0.217-2.201c0.67-5.047,1.34-10.095,2.008-15.143c0.885-0.039,0.068,1.732,1.365,1.243
		C200.223,195.116,203.342,196.415,206.457,197.579z"/>
	<path fill-rule="evenodd" clip-rule="evenodd" fill="#1D747C" d="M49.701,74.578c-1.462-1.755-0.672-3.832-0.69-5.739
		c-0.029-3.033-1.564-3.715-4.088-3.021c-1.545,0.426-3.005,1.161-4.511,1.739c-1.441,0.553-2.942,0.285-3.701-0.902
		c-0.786-1.228,0.746-1.926,1.479-2.629c1.514-1.452,3.192-2.732,4.764-4.128c0.447-0.396,0.354-0.866-0.209-1.169
		c7.412-7.121,15.611-13.244,24.107-18.989c1.083,1.565,0.077,2.886-0.618,4.132c-1.823,3.273-3.401,6.667-5.111,9.994
		c-2.41,4.833-4.966,9.592-7.565,14.326C52.226,70.292,51.713,72.89,49.701,74.578z"/>
	<path fill-rule="evenodd" clip-rule="evenodd" fill="#257C87" d="M15.404,82.915c-2.43,3.903-4.86,7.806-7.567,12.155
		c-2.547-3-4.39-6.206-5.412-9.908c3.841-9.568,4.106-19.88,6.22-29.808c0.304-1.428,0.373-2.816-0.259-4.175
		c0.904-1.786,2.17-3.268,3.765-4.473c2.696,1.694,2.118,4.602,2.313,7.026c0.715,8.856-0.414,17.807,1.281,26.625
		C15.916,81.241,15.5,82.06,15.404,82.915z"/>
	<path fill-rule="evenodd" clip-rule="evenodd" fill="#04ACB7" d="M167.455,165.328c-2.496-0.217-4.842-0.846-6.932-2.316
		c-5.832-4.107-13.299-4.498-19.223-8.302c-5.973-3.834-12.996-5.423-18.954-9.258c-1.394-0.897-2.602-1.728-2.97-3.412
		c0.791-0.982,1.583-1.964,2.374-2.946c3.221-1.392,5.613,0.877,7.785,2.325c5.354,3.57,11.391,5.637,17.2,8.031
		c4.164,1.715,7.99,3.952,12.028,5.822c1.6,0.742,3.352,0.932,5.012,1.46C165.773,159.265,167.941,161.729,167.455,165.328z"/>
	<path fill-rule="evenodd" clip-rule="evenodd" fill="#0D7079" d="M101.5,29.582c0.872,0,1.757,0.098,2.613-0.02
		c2.111-0.289,2.354,0.821,1.803,2.396c-1.015,2.907-0.633,5.901-0.708,8.87c-0.863,1.389-1.695,2.865-1.769,4.482
		c-0.338,7.378-3.042,14.063-5.858,20.726c-0.894,2.115-1.128,4.325-1.125,6.589c0.005,2.883-0.884,5.379-3.249,7.203
		c-2.837-3.034-1.664-6.563-0.561-9.608c1.572-4.343,2.655-8.776,3.802-13.216c0.253-0.982,0.769-1.953-0.096-2.789
		c-4.223-4.081-2.348-8.751-1.309-13.317c0.741-3.255,1.733-6.458,1.913-9.821c-0.652-0.779-1.864,0.044-2.471-0.862
		C96.758,29.284,99.137,29.524,101.5,29.582z"/>
	<path fill-rule="evenodd" clip-rule="evenodd" fill="#06708D" d="M191.533,112.308c1.105-5.839-1.6-10.013-6.037-13.263
		c-3.041-2.229-2.949-4.491-1.088-7.473c3.008-4.816,5.715-9.819,8.549-14.744c0.83-1.811,0.461-4.438,3.32-4.871
		c4.926,1.013,5.102,1.341,3.521,6.537C196.207,89.562,193.248,100.783,191.533,112.308z"/>
	<path fill-rule="evenodd" clip-rule="evenodd" fill="#0D6971" d="M69.715,37.704c3.214-2.15,5.745-5.473,10.002-5.835
		c0.595,0.519,1.651,0.228,2.02,1.148c0.974,3.697-1.7,7.066-0.958,10.743c1.304,5.419-0.604,10.283-2.56,15.159
		c-1.114,2.776-2.101,5.604-2.695,8.553c-0.216,1.071-0.225,2.291-1.529,2.776c-2.635-1.868-2.707-4.462-2.066-7.266
		c1.403-6.145,1.255-6.447-4.368-9.009c-1.092-0.895-1.424-2.115-0.917-3.333C68.369,46.484,68.604,41.993,69.715,37.704z"/>
	<path fill-rule="evenodd" clip-rule="evenodd" fill="#0395A3" d="M249.953,14.584c-2.318-0.024-4.635-0.048-6.953-0.072
		c6.789-0.701,13.572-1.468,20.371-2.088c12.016-1.096,24.039-2.113,36.063-3.129c1.48-0.125,2.98-0.046,4.471-0.062
		c0.047,0.201,0.094,0.402,0.141,0.604c-3.664,2.171-10.068,2.626-15.895,1.148c1.557,0.357,2.1,1.091,0.904,2.379
		c-0.869,0.939-1.998,1.522-3.217,1.806c-9.58,2.223-18.842,5.594-28.424,7.809c-6.504,1.504-8.328-0.044-7.533-6.589
		C249.953,15.787,250.271,15.201,249.953,14.584z"/>
	<path fill-rule="evenodd" clip-rule="evenodd" fill="#0995A6" d="M123.974,182.504c-1.978,0.453-3.946,0.974-6.006,0.853
		c-6.535-4.069-13.734-6.805-20.575-10.259c-4.748-2.398-9.082-5.537-13.824-7.964c-1.787-0.915-2.161-2.535-1.811-4.394
		c1.669-0.812,3.43-1.297,5.276-1.475c0.59-0.342,1.222-0.378,1.766,0.008c5.102,3.617,10.932,5.94,16.311,9.087
		c5.553,3.247,11.637,5.659,17.418,8.585c0.666,0.337,1.4,0.535,2.059,0.896c1.37,0.749,2.702,1.734,2.47,3.415
		C126.813,183.035,124.847,181.645,123.974,182.504z"/>
	<path fill-rule="evenodd" clip-rule="evenodd" fill="#04B0BA" d="M163.705,157.078c-3.217,0.81-5.866-0.864-8.305-2.37
		c-6.57-4.057-13.933-6.287-20.907-9.387c-3.615-1.606-6.409-4.544-10.269-5.646c-0.824-0.235-1.595-0.6-2.475-0.581
		c0.957-1.769,1.913-3.537,2.868-5.306c4.646,0.454,8.667,2.785,12.718,4.711c7.518,3.575,15.023,7.163,22.712,10.355
		c1.568,0.917,1.801,2.735,2.754,4.069C163.459,154.229,164.359,155.487,163.705,157.078z"/>
	<path fill-rule="evenodd" clip-rule="evenodd" fill="#1C90AB" d="M205.014,66.419c0.494-2.646,2.594-2.244,4.434-2.334
		c1.76,2.999,4.607,1.232,6.973,1.589c-0.924,12.937-0.146,25.89-0.412,38.833c-0.033,1.599,0.336,3.246-0.434,4.783
		c-1.273-2.46,0.268-5.237-0.867-7.712c0.479-2.819-1.557-4.869-2.281-7.324c-1.527-5.185-3.27-10.309-5.021-15.423
		c-0.553-1.616-1.287-3.472-3.422-1.324c1.125-2.976,2.229-5.961,3.391-8.922c0.346-0.878,1.338-1.874,0.615-2.63
		C207.096,65.018,205.957,65.838,205.014,66.419z"/>
	<path fill-rule="evenodd" clip-rule="evenodd" fill="#0E767F" d="M111.949,79.792c-1.044-1.603-3.954,0.417-4.314-1.938
		c-0.367-2.404-0.778-5.018,0.412-7.326c1.973-3.829,2.559-7.679,0.776-11.697c-0.71-1.601-0.639-3.103,0.071-4.655
		c2.516-5.503,3.287-11.135,2.529-17.247c-0.364-2.937,0.523-6.365,2.727-8.96l-0.011,0.003c2.207,0.422,1.756,2.159,1.482,3.481
		c-1.199,5.785,0.328,11.674-0.79,17.457c-0.244,1.261,0.472,2.412,1.002,3.537c0.937,1.986,1.433,4.253,0.696,6.174
		c-1.365,3.559-0.486,6.788,0.488,10.109c0.033,0.36,0.106,0.756-0.025,1.087c-1.381,3.462-1.813,6.734,1.72,9.281
		C116.512,79.866,114.241,79.923,111.949,79.792z"/>
	<path fill-rule="evenodd" clip-rule="evenodd" fill="#418F98" d="M43.56,114.588c-3.906-5.268-2.8-10.422,3.703-15.98
		c4.185-3.577,9.112-6.004,14.404-7.619c2.832,0.638,1.716,2.536,1.199,4.08c-2.018,6.023-5.841,10.829-10.507,14.993
		c-1.382,1.233-2.883,2.343-4.167,3.687C46.829,115.174,45.338,115.599,43.56,114.588z"/>
	<path fill-rule="evenodd" clip-rule="evenodd" fill="#0D7780" d="M116.458,69.329c-1.064-3.189-3.02-6.11-1.002-9.85
		c0.887-1.643,0.892-4.303-0.34-6.113c-1.624-2.384-1.43-4.623-1.042-7.324c0.781-5.434-0.813-11.033,0.813-16.485
		c0.124-0.417-0.48-1.051-0.747-1.584c2.368-0.79,4.82-0.743,7.269-0.731c0.745-0.302,1.517-0.312,2.298-0.215
		c0.667,4.38,1.688,8.776-0.592,13.022c-1.161,2.84-2.982,5.562-1.011,8.822c0.536,0.885-0.154,1.899-0.501,2.845
		c-1.696,4.609-4.081,9.041-3.094,14.294C118.749,67.297,118.505,69.072,116.458,69.329z"/>
	<path fill-rule="evenodd" clip-rule="evenodd" fill="#03BAC1" d="M125.539,130.06c0.531-5.693-0.645-11.031-4.022-16.716
		c10.643,5.563,20.68,10.318,30.263,15.949c0.733,2.637,2.571,4.924,2.473,7.826c-0.485,0.844-1.295,0.801-1.96,0.479
		c-8.301-4.016-16.548-8.144-24.92-12.01c-0.325-0.15-0.235-0.713-0.672-0.812c0.077,0.456,0.293,0.873,0.372,1.342
		C127.032,127.622,127.721,129.403,125.539,130.06z"/>
	<path fill-rule="evenodd" clip-rule="evenodd" fill="#089AA9" d="M99.768,154.73c-1.056,1.927-0.407,3.136,1.513,4.015
		c9.061,4.149,17.563,9.386,26.999,12.885c5.031,1.865,10.082,4.42,14.42,7.907c-3.219,0.685-6.411,1.549-9.743,1.501
		c-5.096-4.023-10.904-6.977-16.794-9.384c-7.304-2.985-13.62-7.773-20.991-10.531c-1.885-0.706-3.162-1.99-1.332-4.091
		C95.816,156.264,97.792,155.498,99.768,154.73z"/>
	<path fill-rule="evenodd" clip-rule="evenodd" fill="#297780" d="M118.01,115.058c3.174,5.776,2.567,11.521-0.146,17.247
		c-4.436-4.187-10.284-6.813-13.577-12.274c-0.221-0.316-0.382-0.656-0.505-1.02c-0.535-3.272-1.585-6.505-0.758-9.88
		c0.131-0.373,0.348-0.691,0.639-0.958C109.042,109.222,113.738,111.698,118.01,115.058z"/>
	<path fill-rule="evenodd" clip-rule="evenodd" fill="#0F7982" d="M116.458,69.329c1.244-1.694,1.126-3.347,0.833-5.478
		c-0.576-4.172,1.653-8.023,3.091-11.856c0.635-1.693,1.177-2.564,0.079-4.517c-1.411-2.511,0.413-5.149,1.997-7.399
		c1.203,4.985,3.96,9.643,2.075,15.212c-0.828,2.445,0.841,5.306,0.25,8.032c-0.679,2.186-0.584,4.244,0.224,6.476
		c1.006,2.78,1.417,5.75-0.299,8.535c-1.919,0.87-3.966,0.751-5.995,0.764C112.29,77.08,114.447,76.071,116.458,69.329z"/>
	<path fill-rule="evenodd" clip-rule="evenodd" fill="#0E6D75" d="M89.458,31.832c2.394,8.711-1.982,16.748-2.54,25.167
		c-0.047,0.709-0.713,1.567-0.171,2.124c3.887,3.996,0.626,8.506,0.868,12.737c0.157,2.748-2.872,4.696-3.099,7.764
		c-0.113,1.523,0.265,2.278,1.175,3.132c-1.987,0.237-3.974,0.476-5.961,0.713c-0.102-0.366-0.075-0.673,0.368-0.783
		c-4.885-2.67-1.139-6.204-0.946-9.392c0.364-1.194,1.04-2.349,0.953-3.597c-0.533-7.624,2.556-14.381,5.14-21.218
		c1.524-4.031,2.351-8.086,2.466-12.371C87.751,34.581,86.957,32.455,89.458,31.832z"/>
	<path fill-rule="evenodd" clip-rule="evenodd" fill="#0E7D87" d="M138.961,76.806c-2.472,0.449-4.927,1.055-7.474,0.849
		c-2.606-1.455-2.7-3.652-1.617-6.032c0.774-1.701,1.438-3.422,1.906-5.225c0.22-0.847,0.563-1.841-0.059-2.508
		c-3.131-3.363-1.522-6.952-0.65-10.521c0.873-4.405,0.513-9.219,4.188-12.699c0.383,0.024,0.929,0.15,0.946,0.453
		c0.222,3.759,1.354,7.285,2.271,10.897c0.494,1.945-0.341,4.346,1.006,6.37c0.267,0.4,0.459,1.05,0.257,1.443
		c-2.033,3.965-0.7,7.645,0.865,11.315c-1.229,3.011,2.03,3.037,3.04,4.563C142.382,77.374,140.351,75.713,138.961,76.806z"/>
	<path fill-rule="evenodd" clip-rule="evenodd" fill="#1E809D" d="M189.963,159.342c1.662-3.372,2.375-6.953,2.359-10.695
		c1.979,12.287,1.67,24.625,0.834,36.976c-0.994,0.534-0.344,1.61-0.768,2.333c-1.758,2.121-3.098,0.774-4.055-0.712
		c-1.154-1.792-2.668-2.768-4.697-3.11c-1.281-1.313-0.621-2.757-0.188-4.114c0.779-2.441,1.328-4.944,2.088-7.389
		C186.957,168.182,187.088,163.303,189.963,159.342z"/>
	<path fill-rule="evenodd" clip-rule="evenodd" fill="#0C848E" d="M159.195,23.594c-4.038,0.635-4.167,3.375-4.672,6.853
		c-1.028,7.09,2.095,13.13,3.639,19.571c0.27,1.128-0.068,1.915-0.455,2.811c-1.212,1.452-1.357,4.132-4.233,3.678
		c-3.188-2.276-3.603-5.875-3.965-9.255c-0.304-2.833-0.189-5.596-1.979-8.091c-0.867-1.208-0.552-2.874-0.522-4.36
		c0.272-1.892-0.302-3.687-0.602-5.517c-0.365-2.229-0.143-4.24,2.357-5.191c1.706-0.448,3.538,0.346,5.201-0.528
		c0.409-0.04,0.817-0.081,1.228-0.121C156.523,23.494,157.859,23.543,159.195,23.594z"/>
	<path fill-rule="evenodd" clip-rule="evenodd" fill="#06A1AF" d="M107.367,151.046c9.877,4.805,19.74,9.638,29.637,14.398
		c3.237,1.558,6.532,2.967,10.082,3.765c2.933,0.659,5.713,1.634,6.671,5.127c0.392,1.425,1.821,2.243,3.177,2.891
		c-1.744,0.275-3.488,0.551-5.231,0.827c-4.812-3.345-9.17-7.548-14.951-9.17c-8.569-2.404-15.609-7.941-23.766-11.193
		c-2.667-1.063-6.268-1.896-6.322-6.028C106.897,151.458,107.132,151.252,107.367,151.046z"/>
	<path fill-rule="evenodd" clip-rule="evenodd" fill="#0E7B85" d="M132.208,53.579c-0.796,3.41-3.191,6.637,0.857,10.088
		c1.333,1.136-0.379,4.871-1.623,6.809c-1.718,2.674-1.48,4.796,0.045,7.18c-2.21,0.731-4.492,0.743-6.781,0.679
		c-0.071-3.537,0.476-7.123-1.504-10.439c-0.922-1.544,0.139-3.097,0.756-4.566c0.816-1.318,1.035-2.893,0.794-4.264
		c-1.103-6.276,1.768-11.453,4.301-16.749c2.967,0.59,2.383,2.984,2.281,4.898C131.215,49.428,130.712,51.616,132.208,53.579z"/>
	<path fill-rule="evenodd" clip-rule="evenodd" fill="#0F727A" d="M93.207,79.829c2.659-9.553,4.949-19.209,8.525-28.499
		c0.771-2.003,0.335-4.442,0.887-6.568c0.383-1.477,0.946-3.142,2.587-3.933c-1.339,6.543-0.133,13.45-2.889,19.804
		c-0.447,1.033,0.086,2.183,0.475,3.261c1.323,3.665,1.434,7.233-0.583,10.793c-1.254,2.216-1.609,4.514,1.491,5.751
		c-1.056,1.144-2.599-0.003-3.729,0.793c-2.732,0.489-5.464,0.985-8.262,0.822C91.214,80.642,95.492,82.442,93.207,79.829z"/>
	<path fill-rule="evenodd" clip-rule="evenodd" fill="#0E828D" d="M147.958,34.829c-0.097,2.23-0.124,4.37,1.767,6.113
		c0.634,0.585,1.121,1.894,0.939,2.708c-1.091,4.912,0.916,8.95,3.293,12.929c1.295,2.771,2.963,5.462,1.416,8.722
		c-0.384,0.807-0.131,1.664,0.328,2.471c3.059,5.385,2.547,6.557-3.244,7.56c-0.447,0.042-0.895,0.083-1.341,0.125
		c-0.191-0.029-0.381-0.059-0.572-0.088c-2.109-0.097-2.641-1.421-2.633-3.267c0.02-4.4-1.021-8.664-2.294-12.798
		c-0.871-2.828,0.527-5.067,0.839-7.58c-0.467-4.454,0.453-8.91-0.12-13.373C146.165,37.022,145.849,35.27,147.958,34.829z"/>
	<path fill-rule="evenodd" clip-rule="evenodd" fill="#04B3BC" d="M125.539,130.06c1.233-1.322,0.42-2.975,0.717-4.448
		c8.45,8.201,19.735,10.963,30.024,15.642c0.348,0.154,0.66,0.361,0.946,0.61c1.407,2.395,3.325,4.611,2.731,7.715
		c-6.052-2.087-11.837-4.771-17.576-7.604c-5.843-2.886-11.835-5.47-17.763-8.187C124.925,132.544,125.232,131.302,125.539,130.06z"
		/>
	<path fill-rule="evenodd" clip-rule="evenodd" fill="#0A8D9F" d="M104.434,185.459c-0.876,0.07-1.752,0.141-2.628,0.21
		c-1.139,0.409-2.323,0.234-3.488,0.273c-3.466,0.598-5.896-1.653-8.441-3.292c-6.143-3.959-12.683-7.288-18.477-11.807
		c-1.933-1.507-3.945-2.74-3.211-5.66c1.855-1.1,3.789-1.987,5.97-2.209c0.332-0.136,0.673-0.168,1.022-0.078
		c0.251,0.809-0.191,1.621,0.987,2.374c5.756,3.68,11.351,7.619,16.963,11.513C97.016,179.478,101.121,181.982,104.434,185.459z"/>
	<path fill-rule="evenodd" clip-rule="evenodd" fill="#0898A8" d="M93.84,157.032c0.789,2.523,1.177,1.938,5.794,5.007
		c8.103,5.386,17.73,7.75,25.56,13.569c1.129,0.839,2.825,0.871,4.167,1.479c1.723,0.781,3.281,1.832,3.595,3.95
		c-2.931,0.876-5.941,1.264-8.982,1.467c0.363-1.194,2.563,0.068,2.371-1.656c-0.154-1.38-1.421-1.912-2.565-2.472
		c-8.894-4.343-18.071-8.079-26.486-13.44c-3.251-2.071-7.082-3.318-10.257-5.67C89.208,158.232,91.479,157.493,93.84,157.032z"/>
	<path fill-rule="evenodd" clip-rule="evenodd" fill="#0A92A3" d="M75.2,163.092c-0.347-0.039-0.693-0.078-1.041-0.117
		c2.379-1.268,4.941-1.914,7.6-2.234c1.486,4.677,6.224,5.129,9.52,7.504c7.294,5.257,15.799,7.986,23.657,12.042
		c1.394,0.72,2.507,1.565,3.032,3.07c-3.197,0.854-6.46,1.27-9.757,1.455c0.76-1.366,0.526-2.194-1.049-2.885
		c-8.409-3.681-16.251-8.482-24.482-12.521C79.664,167.926,76.716,166.354,75.2,163.092z"/>
	<path fill-rule="evenodd" clip-rule="evenodd" fill="#0E6A72" d="M79.708,73.829c-0.246,1.209-0.438,2.433-0.748,3.625
		c-0.702,2.698-1.039,5.125,3.792,4.582c-1.545,0.732-2.284,1.082-3.023,1.432c-0.265,0.008-0.53,0.017-0.795,0.024
		c-0.986-0.572-2.067-0.187-3.099-0.293c-0.041-0.004-0.309-0.141-0.17,0.058c0.096,0.138,0.379,0.199,0.501,0.425
		c-0.758,0.527-1.605,0.615-2.493,0.509c-0.862-0.515-2.18,0.132-2.771-1.086c-0.854-3.157-0.712-6.331-0.004-9.471
		c0.353-1.564,0.979-3.079,2.809-3.556c1.507-6.766,4.254-13.126,6.473-19.657c0.797-2.349-0.862-4.364-0.473-6.593
		c3.334,1.3,4.508,2.934,3.709,6.068c-1.68,6.592-3.46,13.123-2.704,20.064C80.844,71.158,80.177,72.566,79.708,73.829z"/>
	<path fill-rule="evenodd" clip-rule="evenodd" fill="#0D6C74" d="M79.708,73.829c0.46-6.62-0.16-13.319,1.445-19.856
		c0.119-0.483,0.051-1.064,0.299-1.454c2.208-3.475,1.372-6.302-1.744-8.689c-0.816-3.924,1.839-7.385,1.5-11.245
		c0.479-0.146-0.186-0.073,0.285-0.233c0.471-0.16,0.952-0.089,1.421-0.175c-0.44,0.015-0.858-0.03-1.136-0.438
		c3.517-0.784,7.074-1.244,10.68-1.317c0.263,0.146,0.35,0.291,0.263,0.436c-0.087,0.145-0.174,0.218-0.263,0.218
		c-0.786,1.103-1.965,0.647-3,0.757c-1.769,2.991-0.376,6.299-0.945,9.45c-1.151,6.381-4.372,12.029-6.053,18.231
		c-0.763,2.813-1.293,5.498-1.248,8.351C81.247,69.993,81.15,72.078,79.708,73.829z"/>
	<path fill-rule="evenodd" clip-rule="evenodd" fill="#287F8A" d="M8.386,51.179c1.078,0.634,1.852,1.324,1.584,2.83
		c-1.75,9.833-3.654,19.648-4.977,29.54c-0.347,2.59-2.174,0.461-2.568,1.613C-2.435,72.633,0.24,61.426,8.386,51.179z"/>
	<path fill-rule="evenodd" clip-rule="evenodd" fill="#0C666E" d="M69.715,37.704c0.839,3.835-0.234,7.421-1.426,10.996
		c-0.527,1.581-1.73,3.094-0.582,4.879c5.595,5.515,5.619,5.838,0.93,12.265c-0.438,0.601-0.882,1.193-1.48,1.653
		c-1.017,0.618-2.052,1.131-3.256,0.485c-0.285-0.412-0.283-1.07-0.608-1.329c-4.472-3.563-4.065-8.239-3.073-13.066
		c1.974-4.729,5.094-8.907,6.63-13.846C67.701,38.914,68.319,37.762,69.715,37.704z"/>
	<path fill-rule="evenodd" clip-rule="evenodd" fill="#0D818B" d="M147.958,34.829c-0.945,0.709-1.015,1.865-0.697,2.685
		c1.659,4.275-1.218,8.733,0.628,12.981c0.246,0.565-0.146,1.184-0.682,1.583c-1.429,1.3-2.862,2.58-4.941,1.192
		c-0.99-7.366-2.251-14.702-2.843-22.118c-0.169-2.125-0.355-4.016-2.968-4.388c-0.629-0.196-1.197-0.477-1.539-1.078
		c4.17-1.128,8.455-1.262,12.732-1.456c0.411-0.27,0.761-0.206,1.049,0.192c-2.139,1.549-1.729,3.692-1.136,5.713
		C148.023,31.71,148.452,33.208,147.958,34.829z"/>
	<path fill-rule="evenodd" clip-rule="evenodd" fill="#146B76" d="M20.321,39.258c7.055,2.207,13.395,6.019,20.119,8.972
		c2.146,0.943,4.201,2.095,6.298,3.152c-2.677,2.271-5.354,4.541-8.032,6.812c-6.988-5.282-13.635-10.984-20.4-16.542
		c-0.17-0.141-0.135-0.444-0.068-0.699C18.932,40.388,19.627,39.823,20.321,39.258z"/>
	<path fill-rule="evenodd" clip-rule="evenodd" fill="#0D646C" d="M60.221,53.586c1.271,1.418,0.777,2.987,0.342,4.52
		c-0.77,2.706-0.249,4.946,2.435,6.2c1.859,0.869,1.902,2.005,0.96,3.522c0.729,1.705-0.215,3.122-0.875,4.534
		c-1.199,2.563-2.273,5.18-3.447,7.747c-1.141,2.495-1.435,4.785-0.176,7.23c-1.932,0.923-4.227,0.911-5.971,2.316
		c-2.005-0.974-1.423-2.606-1.009-4.147c0.449-1.672,1.193-3.25,2.002-4.758c2.561-4.773,1.547-8.985-1.763-12.919
		C55.22,63.083,57.72,58.334,60.221,53.586z"/>
	<path fill-rule="evenodd" clip-rule="evenodd" fill="#0B94A0" d="M195.207,35.576c-1.998,0.001-3.998,0.001-5.998,0.001
		c-1.504-3.586-4.061-6.854-3.357-11.109c0.744-1.051,1.9-0.797,2.938-0.926c0.176-0.021,0.352-0.041,0.527-0.06
		c3.768,0.144,7.498,0.563,11.143,1.579c0.971,3.221,4.152,4.343,6.219,6.523c0.729,0.768,2.08,0.909,2.262,2.249
		c-0.133,0.378-0.377,0.646-0.738,0.819c-2.682,0.977-5.557-0.022-8.248,0.831C198.377,35.771,196.799,36.031,195.207,35.576z"/>
	<path fill-rule="evenodd" clip-rule="evenodd" fill="#0F6775" d="M61.808,206.915c-0.954,2.036-0.303,4.307-0.928,6.391
		c-1.022-0.719-1.84-1.123-2.674,0.424c-0.485,0.899-1.661,1.355-2.762,1.581c-0.783,0.087-1.471-0.183-2.116-0.589
		c-2.736-1.723-5.467-3.284-8.134,0.109c-1.215-3.035-1.571-6.213-1.573-9.449c-0.45-3.443-0.461-6.886,0.008-10.329
		c0.028-0.406,0.056-0.812,0.084-1.219c1.508-0.038,1.405,1.193,1.687,2.124c0.273,4.561,1.059,5.609,5.503,6.542
		c3.163,0.664,6.13,2.142,9.433,2.212C61.815,204.742,62.35,205.49,61.808,206.915z"/>
	<path fill-rule="evenodd" clip-rule="evenodd" fill="#05607C" d="M190.795,227.595c0.828,0.776,0.477,3.865,2.914,1.485
		c1.393,3.964,3.137,7.875,1.561,12.23c-0.289,0.799-0.646,1.795,0.203,2.426c1.146,0.854,1.762-0.34,2.51-0.892
		c1.656-1.22,3.348-2.202,5.451-1.023c-4.262,3.542-8.625,6.91-14.152,8.284c-1.883,0.135-4.125,2.334-5.412-0.945
		C186.742,242.154,188.848,234.9,190.795,227.595z"/>
	<path fill-rule="evenodd" clip-rule="evenodd" fill="#0E6870" d="M66.958,67.079c0.168-0.335,0.292-0.702,0.511-0.998
		c2.746-3.703,5.818-7.377,0.461-11.427c-0.22-0.166-0.154-0.708-0.222-1.075c5.684,0.925,7.333,2.684,5.72,7.537
		c-1.079,3.243-0.659,6.005,0.28,8.963c-3.321,4.071-1.979,8.919-2.25,13.499c-1.134,0.551-2.36,0.659-3.586,0.747
		c-0.475,0.348-1.637-0.646-1.56,0.797c-0.781,0.25-1.562,0.499-2.343,0.749c-0.493-0.423-0.926-1.017-0.816-1.6
		C64.238,78.5,63.684,72.362,66.958,67.079z"/>
	<path fill-rule="evenodd" clip-rule="evenodd" fill="#076B7D" d="M176.576,73.068c0.234-0.243,0.467-0.484,0.699-0.727
		c0.223-0.324,0.449-0.312,0.68-0.011c-0.451,6.75,1.197,13.5,0.004,20.25c1.932,3.249,1.104,6.497,0,9.745
		c0,9.927,0.01,19.853-0.014,29.779c-0.004,1.158,0.213,2.219,0.762,3.224c0.926,8.227,0.215,16.479,0.389,24.717
		c-0.184,6.77,0.406,13.55-0.242,20.313c-0.795,1.457-0.053,3.718-2.285,4.437c0.01-23.749,0.018-47.497,0.025-71.246
		c0.412-6.232,0.42-12.466-0.002-18.698C176.586,87.589,176.582,80.329,176.576,73.068z"/>
	<path fill-rule="evenodd" clip-rule="evenodd" fill="#0F848F" d="M152.457,75.332c1.092-1.337,3.838-0.137,4.133-2.877
		c0.152-1.406,0.789-2.66-1.14-3.244c-0.917-0.277-1.757-1.192-1.394-1.909c1.846-3.642-0.104-7.159-0.1-10.723
		c1.267-1.234,2.029-2.972,3.75-3.75c-0.147,2.162,0.049,4.263,1.742,5.831c4.4,4.073,5.477,9.39,5.758,15.024
		C160.975,74.372,156.791,75.43,152.457,75.332z"/>
	<path fill-rule="evenodd" clip-rule="evenodd" fill="#429099" d="M66.035,89.46c3.696-2.089,7.095-2.149,10.994,0.158
		c7.558,4.474,15.44,8.398,23.188,12.55c-0.838,1.954-2.692,2.063-4.405,2.434c-0.576,0.037-1.142-0.032-1.697-0.187
		c-1.699-0.649-3.257-1.613-4.964-2.251c-7.154-3.517-14.296-7.059-21.484-10.513C66.896,91.09,66.186,90.482,66.035,89.46z"/>
	<path fill-rule="evenodd" clip-rule="evenodd" fill="#0B8A9D" d="M68.189,165.184c0.462,2.616,2.048,4.314,4.457,5.231
		c2.377,0.903,3.795,3.05,5.995,4.286c5.879,3.305,11.496,7.076,17.249,10.609c0.48,0.295,1.207,0.188,1.818,0.268
		c0.246,0.17,0.327,0.339,0.246,0.51c-0.082,0.169-0.163,0.255-0.246,0.255c-3.202,0.79-6.446,1.3-9.743,1.453
		c0.063-1.781,1.308-0.875,1.895-0.944c-4.898-0.135-8.051-4.175-12.055-6.456c-3.838-2.187-6.732-5.807-10.314-8.481
		c-1.643-1.227-2.422-3.105-2.835-5.105C65.667,165.905,66.857,165.391,68.189,165.184z"/>
	<path fill-rule="evenodd" clip-rule="evenodd" fill="#227984" d="M15.404,82.915c-1.254-4.136-1.854-8.332-1.736-12.685
		c0.187-6.9-0.074-13.801-0.738-20.677c-0.093-0.965-0.511-1.898-0.779-2.847c0.494-0.515,0.987-1.029,1.481-1.543
		c0.876-0.032,1.822-0.135,1.996,1.075c1.415,9.785,3.998,19.345,5.594,29.094C19.771,78.233,17.478,80.49,15.404,82.915z"/>
	<path fill-rule="evenodd" clip-rule="evenodd" fill="#0B8799" d="M64.656,166.809c3.009,5.174,8.053,8.304,12.508,11.904
		c3.886,3.141,8.076,6.113,12.881,7.994c-0.593,0.311-1.337,0.7-2.08,1.089c-3.48,0.626-6.934,1.445-10.497,1.489
		c-0.054-1.759,1.3-1.002,1.933-1.289c-6.164-4.326-10.766-10.643-16.671-15.563c-1.468-1.224-2.149-2.804-0.365-4.438
		C63.017,167.384,63.724,166.878,64.656,166.809z"/>
	<path fill-rule="evenodd" clip-rule="evenodd" fill="#0C8B96" d="M183.207,37.078c-1.08,6.201-5.396,7.98-10.402,4.287
		c-6.172-4.554-8.303-11.858-5.24-18.4c-1.152-0.071-2.242-0.138-3.332-0.205c4.27-1.251,8.627-0.782,12.969-0.659
		c0.203,0.799-0.34,1.288-0.926,1.294c-3.643,0.036-3.582,2.379-3.393,5.031c0.137,1.892,0.648,3.632,1.33,5.364
		c1.74,4.418,3.586,5.137,7.988,3.071C182.572,36.773,182.908,36.838,183.207,37.078z"/>
	<path fill-rule="evenodd" clip-rule="evenodd" fill="#196871" d="M107.004,144.477c-1.339,1.307-2.886,2.283-4.652,2.907
		c-0.581,0.335-1.415,0.474-1.6-0.151c-0.806-2.713-3.145-4.731-3.41-7.669c-1.706-4.323-2.71-8.801-3.418-13.394
		c-0.75-4.865,0.185-9.434,1.684-13.971c0.399-1.208,1.046-2.287,2.463-2.566c1.622,0.771,1.333,2.278,1.191,3.564
		c-0.753,6.871,0.243,13.572,1.827,20.22c0.602,2.528,2.412,4.301,4.099,6.111C106.512,140.948,107.612,142.38,107.004,144.477z"/>
	<path fill-rule="evenodd" clip-rule="evenodd" fill="#0C8596" d="M62.365,167.996c-0.518,1.365-0.518,2.494,0.727,3.643
		c4.962,4.585,9.69,9.431,14.787,13.855c2.216,1.923,2.719,2.835-0.41,3.792c-2.213,0.608-4.447,1.042-6.76,0.795
		c0.434-1.122,1.172-1.86-0.24-3.285c-4.106-4.143-7.978-8.491-12.856-11.8c-3.034-2.058,0.101-3.107,0.874-4.53
		C59.563,169.304,60.901,168.549,62.365,167.996z"/>
	<path fill-rule="evenodd" clip-rule="evenodd" fill="#17656E" d="M107.004,144.477c-0.323-2.315-1.884-3.835-3.525-5.227
		c-4.068-3.454-3.82-8.589-4.9-13.08c-1.283-5.334-0.334-10.885-0.122-16.342c-0.913-1.674-0.104-2.682,1.332-3.448
		c0.858-0.12,1.577,0.045,1.92,0.958c-1.842,6.116,0.711,11.743,1.967,17.515c0.26,1.196,1.093,1.915,2.136,2.45
		c0.32,0.257,0.559,0.571,0.733,0.94c1.441,3.985,0.826,8.239,1.638,12.307c0.27,1.331,0.09,2.571-0.746,3.677
		C107.361,144.429,107.217,144.512,107.004,144.477z"/>
	<path fill-rule="evenodd" clip-rule="evenodd" fill="#2D7B84" d="M66.035,89.46c0.566,0.532,1.133,1.063,1.7,1.595
		c0.382,0.791,1.209,1.193,1.678,1.913c2.609,2.335,4.859,5.005,7.2,7.589c1.967,2.172,2.72,4.67,2.105,7.605
		c-1.047,5-2.342,9.935-3.807,14.822c-0.865,2.885-1.58,5.767-1.457,8.808c0.038,0.936-0.285,1.717-1.259,2.068
		c-1.669-0.426-3.104-1.306-4.471-2.316c0.228-3.992,1.714-7.689,2.689-11.506c0.062-0.239,0.126-0.482,0.231-0.705
		c4.569-9.7,2.665-18.224-4.682-25.756c-0.681-0.634-1.238-1.354-1.515-2.26c-0.185-0.876,0.41-1.301,1.008-1.723
		C65.625,89.445,65.817,89.4,66.035,89.46z"/>
	<path fill-rule="evenodd" clip-rule="evenodd" fill="#0B99A8" d="M265.777,57.246c-4.525-1.864-7.557-5.703-11.279-8.624
		c-1.234-0.969-0.268-1.697,0.881-1.929c2.521-0.51,5.051-0.98,7.576-1.465c4.15,2.066,7.352,5.309,10.582,8.524
		c1.887,1.88,1.238,2.609-1.113,2.685C270.107,55.875,268.008,57.106,265.777,57.246z"/>
	<path fill-rule="evenodd" clip-rule="evenodd" fill="#3E8C94" d="M43.56,114.588c4.468,0.159,6.372-3.824,9.109-6.115
		c4.229-3.54,7.51-8.118,9.364-13.514c0.493-1.437,1.103-2.766-0.366-3.97c0.386-0.54,0.944-0.642,1.555-0.609
		c2.103,1.466,1.781,3.535,1.404,5.618c-0.18,0.596-0.729,1.126-0.749,1.682c-0.257,7.34-4.698,12.54-8.884,17.947
		c-2.876,3.715-4.049,4.273-8.417,2.677C45.369,117.228,43.944,116.331,43.56,114.588z"/>
	<path fill-rule="evenodd" clip-rule="evenodd" fill="#2B7982" d="M107.46,140.573c-1.19-4.167-1.023-8.492-1.503-12.743
		c-1.158-1.112-0.744-2.704-1.239-4.021c-0.112-0.352-0.189-0.708-0.253-1.071c-0.16-1.143-0.134-2.246,0.724-3.154
		c1.787,4.572,6.598,5.958,9.751,9.107c1.141,1.139,2.111,2.274,2.924,3.613c-0.876,3.111-2.823,5.471-5.256,7.489
		c-2.27,1.02-3.039-1.728-4.783-1.813C108.365,138.855,108.291,139.759,107.46,140.573z"/>
	<path fill-rule="evenodd" clip-rule="evenodd" fill="#0B8FA1" d="M75.2,163.092c6.348,5.757,14.376,8.628,21.747,12.621
		c3.791,2.053,7.676,3.931,11.516,5.894c2.47,1.263,1.4,2.259-0.251,3.205c-1.259,0.216-2.519,0.432-3.778,0.647
		c-7.031-3.581-12.76-9.098-19.512-13.112c-3.271-1.944-6.261-4.359-9.422-6.496C74.217,164.984,73.767,164.18,75.2,163.092z"/>
	<path fill-rule="evenodd" clip-rule="evenodd" fill="#176E7A" d="M18.238,40.953c6.777,4.389,12.404,10.251,18.998,14.883
		c0.698,0.49,0.99,1.559,1.471,2.358c-1.348,1.722-3.006,3.104-4.768,4.376c-2.425,0.208-3.431-1.756-4.613-3.224
		c-2.808-3.484-5.616-7.009-7.821-10.905c-1.326-2.342-4.103-3.457-4.833-6.193C17.193,41.817,17.715,41.384,18.238,40.953z"/>
	<path fill-rule="evenodd" clip-rule="evenodd" fill="#0C7D86" d="M134.917,25.687c0.594,0.05,1.189,0.099,1.784,0.148
		c-0.311,2.9-0.183,5.919-1.354,8.62c-0.957,2.205,1.43,4.304-0.139,6.374c-1.559,4.118-3.018,8.26-3,12.75
		c-2.392-1.135-2.748-3.253-2.034-5.362c0.77-2.271,0.352-4.089-0.966-5.888c-1.256-0.324-2.273-1.337-1.87-2.402
		c1.537-4.062,1.338-8.429,2.237-12.496c-1.704,0.632-3.676,1.517-5.627-0.089c-0.846-0.033-1.692-0.066-2.54-0.099
		C125.86,26.286,130.36,25.739,134.917,25.687z"/>
	<path fill-rule="evenodd" clip-rule="evenodd" fill="#045B79" d="M203.434,241.822c-2.334,0.335-4.643,0.561-6.086,2.946
		c-0.457,0.756-1.791,0.803-2.725,0.369c-0.734-0.34-1.182-1.297-0.826-1.904c2.775-4.764-0.307-9.442-0.088-14.152
		c1.25-0.251,2.498-0.502,3.748-0.752c0.84-0.717,1.768-0.859,2.781-0.435c2.91,2.84,1.338,6.78,2.268,10.241
		c2.492-1.014,3.836-4.104,6.941-3.057C208.498,238.268,205.676,239.787,203.434,241.822z"/>
	<path fill-rule="evenodd" clip-rule="evenodd" fill="#2B7982" d="M72.195,133.861c-0.111-8.944,3.995-16.994,5.513-25.607
		c0.575-3.264-0.385-5.35-2.294-7.699c-2.231-2.745-5.373-4.687-6.958-7.977c2.062-0.227,3.485,1.034,4.948,2.161
		c0.69,0.531,1.188,1.347,1.935,1.754c7.35,3.997,8.277,9.86,5.187,17.057c-0.98,2.282-1.451,4.771-2.281,7.117
		c-1.686,4.768-1.932,9.715-2.089,14.691c-0.561,1.173-1.036,2.536-2.744,1.322C76.017,134.441,72.263,134.947,72.195,133.861z"/>
	<path fill-rule="evenodd" clip-rule="evenodd" fill="#038E9C" d="M236.379,15.426c1.838-0.263,3.26-0.06,3.115,2.375
		c-0.041,0.692,0.115,1.75,0.574,2.062c4.48,3.043,3.039,8.293,5.17,12.467c-2.688,0.309-4.566-1.706-6.85-1.103
		c-1.037-0.033-2.07-0.091-2.932-0.784c-1.252-3.212-2.516-6.425-2.879-9.889C232.182,16.763,232.732,16.052,236.379,15.426z"/>
	<path fill-rule="evenodd" clip-rule="evenodd" fill="#0D626A" d="M52.719,67.83c3.283,1.707,5.177,5.437,4.174,8.719
		c-0.75,2.458-1.862,4.802-2.758,7.217c-0.705,1.898-2.085,3.746-0.647,5.889c-0.918,0.669-1.791,1.443-3.047,1.34
		c-2.239-0.327-2.659-1.979-1.945-3.577c1.383-3.094,0.695-5.73-1.031-8.336c0.746-1.501,1.491-3.002,2.236-4.504
		C50.191,72.098,51.747,70.094,52.719,67.83z"/>
	<path fill-rule="evenodd" clip-rule="evenodd" fill="#068692" d="M201.961,18.352c2.449-0.24,4.811-1.251,7.336-0.826
		c2.979-1.009,6.182,0.498,9.135-0.818l-0.072,0.046c1.307-0.372,2.605-0.604,4.088,0.328c-2.439,2.177-3.576,4.398-2.051,7.793
		c0.912,2.031-1.297,1.059-2.281,1.049c-6.125-1.075-12.252-2.15-18.379-3.224C200.129,21.072,201.52,19.954,201.961,18.352z"/>
	<path fill-rule="evenodd" clip-rule="evenodd" fill="#0C8E98" d="M182.457,37.079c-2.809,3.224-6.873,2.413-8.658-1.419
		c-1.684-3.61-1.711-7.41-2.189-11.195c-0.207-1.638,0.703-1.523,1.713-1.639c1.309-0.149,2.77,0.49,3.879-0.725
		c1.602-0.03,3.223-0.2,4.715,0.615c-0.342,0.767-1.193,1.112-1.533,1.881C179.316,29.056,181.166,33.022,182.457,37.079z"/>
	<path fill-rule="evenodd" clip-rule="evenodd" fill="#045976" d="M209.447,235.079c-2.533,0.621-4.344,2.284-6.035,4.14
		c-0.4,0.439-0.873,0.976-1.576,0.702c-0.74-0.287-0.615-1.018-0.611-1.609c0.018-3.351,0.086-6.701-0.768-9.983
		c0.529-2.39,2.652-2.022,4.293-2.492c2.391-0.146,4.615-1.227,7.029-1.267c0.637,0.065,1.207,0.273,1.654,0.753
		c0.236,1.031,0.338,2.054-0.219,3.026C212.686,230.999,211.588,233.331,209.447,235.079z"/>
	<path fill-rule="evenodd" clip-rule="evenodd" fill="#03A0AE" d="M320.248,7.7c2.568,0.043,5.139,0.087,7.707,0.131
		c1.191,2.387,1.553,4.819,0.408,7.335c-5.674,2.961-16.094,0.302-19.219-4.909c-0.346-0.577-0.354-1.159,0.066-1.716
		C312.859,7.861,316.557,7.8,320.248,7.7z"/>
	<path fill-rule="evenodd" clip-rule="evenodd" fill="#207782" d="M21.222,75.332c-1.802-1.355-1.687-3.552-2.102-5.389
		c-1.539-6.833-2.672-13.758-4.304-20.566c-0.328-1.369,1.175-3.417-1.185-4.213c0.284-0.716,0.799-1.195,1.516-1.465
		c1.229,0.298,1.864,1.182,2.24,2.302c2.626,7.807,5.348,15.581,8.144,23.328c0.173,0.479,0.157,0.981,0.127,1.481
		C24.44,72.573,23,74.119,21.222,75.332z"/>
	<path fill-rule="evenodd" clip-rule="evenodd" fill="#38868F" d="M63.958,96.329c-0.128-1.997,0.426-4.08-0.736-5.949
		c0.654-0.522,1.366-0.877,2.235-0.785c-0.249,0.493-0.497,0.987-0.746,1.479c4.308,7.855,3.567,15.673-0.125,23.496
		c-1.433,3.035-3.22,5.891-4.461,9.02c-0.533,1.342-1.46,2.294-2.904,2.661c-1.842-0.431-3.12-1.762-4.547-2.854
		c0.93-3.445,3.564-5.853,5.53-8.604c3.321-4.645,5.149-9.577,5.016-15.261C63.193,98.407,63.223,97.284,63.958,96.329z"/>
	<path fill-rule="evenodd" clip-rule="evenodd" fill="#048C99" d="M236.379,15.426c-2.529,0.664-3.621,2.35-2.867,4.803
		c0.971,3.157,0.557,6.717,3.23,9.442c0.953,0.971-0.943,0.294-1.285,0.771l-0.285,0.031l-0.213-0.19
		c-1.217-1.512-3.137-0.736-4.609-1.417c-1.078,0.068-2.092-0.124-2.998-0.745c-0.518-2.077-1.709-3.826-2.713-5.674
		c-1.111-2.043-1.762-4.153-0.184-6.299c3.658-0.62,7.324-1.142,11.051-0.917C235.797,15.296,236.088,15.362,236.379,15.426z"/>
	<path fill-rule="evenodd" clip-rule="evenodd" fill="#307E87" d="M66.207,92.58c3.12,3.226,5.439,7.031,7.469,10.967
		c2.006,3.892,0.06,7.784-0.764,11.59c-1.071,4.946-3.403,9.57-3.841,14.706c-0.051,0.601-0.879,1.137-1.347,1.703
		c-1.609-0.546-3.161-1.207-4.488-2.303c2.897-6.76,6.194-13.381,6.896-20.874c0.36-3.854-0.317-7.384-2.826-10.442
		C67.304,96.069,65.005,94.681,66.207,92.58z"/>
	<path fill-rule="evenodd" clip-rule="evenodd" fill="#0E6169" d="M47.465,79.082c3.143,1.904,3.848,4.469,2.095,7.707
		c-0.891,1.646-0.792,3.093,0.881,4.206c-5.115,3.325-10.562,6.28-13.429,12.1c-0.314,0.278-0.457,0.703-0.805,0.953
		c-0.14,0.008-0.28,0.015-0.419,0.022c-0.114-0.082-0.228-0.164-0.341-0.246c1.504-3.498,3.009-6.996,4.513-10.494
		C43.033,88.88,44.867,83.78,47.465,79.082z"/>
	<path fill-rule="evenodd" clip-rule="evenodd" fill="#0B919F" d="M230.457,52.829c0.25,0.001,0.498,0.003,0.746,0.003
		c2.332,1.041,3.996,2.768,5.168,5.012c0.408,1.861,0.447,3.615-1.428,4.796c-4.385,1.419-8.955,1.702-13.49,2.209
		c0.725-3.759,2.098-7.305,3.525-10.841C226.561,52.473,228.428,52.274,230.457,52.829z"/>
	<path fill-rule="evenodd" clip-rule="evenodd" fill="#1B727D" d="M16.67,42.249c5.773,3.941,8.172,10.617,12.624,15.642
		c1.471,1.661,2.801,3.409,4.644,4.68c-1.792,1.738-3.583,3.476-5.376,5.214c-0.604,0.541-1.236,0.442-1.487-0.252
		c-3.064-8.504-7.926-16.188-11.186-24.6C16.15,42.704,16.41,42.477,16.67,42.249z"/>
	<path fill-rule="evenodd" clip-rule="evenodd" fill="#0D7D8E" d="M50.323,178.027c0.775-1.487,1.866-2.692,3.243-3.644
		c4.701,4.031,9.302,8.174,13.704,12.526c0.992,0.979,2.221,2.068,1.917,3.806c-0.988,1.049-1.976,2.097-2.964,3.146
		c-0.251-0.003-0.559,0.049-0.734-0.087c-5.501-4.263-10.686-8.861-15.088-14.281C50.08,179.097,50.365,178.518,50.323,178.027z"/>
	<path fill-rule="evenodd" clip-rule="evenodd" fill="#108C90" d="M59.584,163.138c-1.771,0.992-3.541,1.983-5.312,2.977
		c-4.572-2.546-9.654-3.626-14.59-5.142c-1.385-0.425-3.399-0.199-3.527-2.495c0.431-0.998,1.188-1.687,2.108-2.22
		c1.836-1.276,3.741-1.47,5.948-0.895c4.176,1.088,8.285,2.434,12.557,3.188C59.177,158.977,60.431,160.514,59.584,163.138z"/>
	<path fill-rule="evenodd" clip-rule="evenodd" fill="#0B909C" d="M182.457,37.079c-3.539-3.936-3.74-8.613-2.998-13.501
		c1.652-0.934,3.574,0.185,5.234-0.687c1.568-0.012,3.156-0.196,4.623,0.591l-0.297,0.198c-0.836,0.655-2.027-0.231-2.813,0.65
		c0.287,2.618,0.959,5.108,2.199,7.458c0.609,1.155,1.693,2.286,0.803,3.79c-1.893,0.932-4.203,0.195-6.002,1.5
		C182.957,37.079,182.707,37.079,182.457,37.079z"/>
	<path fill-rule="evenodd" clip-rule="evenodd" fill="#0B9FAC" d="M231.199,31.784c1.949,2.462-0.688,4.397-0.939,6.607
		c-0.422,3.689-0.424,7.792-3.555,10.688c-2.873-0.278-4.691-1.891-5.729-4.503c0.381-2.734,1.975-5.053,2.645-7.716
		c0.49-1.959,0.789-3.793,0.059-5.71c1.492-0.997,3.004-0.485,4.514-0.069C229.014,32.085,230.189,31.584,231.199,31.784z"/>
	<path fill-rule="evenodd" clip-rule="evenodd" fill="#0F9093" d="M36.156,158.478c4.723,2.601,10.166,3.013,15.118,4.948
		c1.448,0.565,2.653,1.054,2.999,2.688c-1.714,1.268-3.428,2.534-5.141,3.802c-3.799-2.046-8-2.924-12.059-4.229
		c-1.746-0.562-4.077-0.777-3.957-3.55C33.812,160.655,34.803,159.417,36.156,158.478z"/>
	<path fill-rule="evenodd" clip-rule="evenodd" fill="#0C8C8C" d="M28.677,169.028c0.462-1.411,1.11-2.711,2.234-3.725
		c0.896-0.383,1.75-0.144,2.428,0.407c3.535,2.873,6.751,6.074,9.619,9.617c0.328,0.404,0.279,0.919,0.072,1.398
		c-0.549,0.945-1.098,1.89-1.647,2.836c-3.886-0.567-7.719-1.394-11.521-2.384C28.463,174.607,28.275,171.86,28.677,169.028z"/>
	<path fill-rule="evenodd" clip-rule="evenodd" fill="#0F9496" d="M43.03,176.726c-3.715-4.151-7.161-8.59-12.119-11.423
		c0.416-1.277,1.174-2.316,2.205-3.165c2.763,3.708,7.36,3.08,11.055,4.565c1.938,0.78,3.934,1.152,4.961,3.213
		C47.098,172.186,45.064,174.456,43.03,176.726z"/>
	<path fill-rule="evenodd" clip-rule="evenodd" fill="#0C8192" d="M69.186,190.715c-4.066-4.708-7.991-9.601-13.573-12.636
		c-1.646-0.896-0.94-2.717-2.048-3.696c1.356-1.662,2.973-2.997,4.92-3.918c-1.364,2.74-1.286,2.646,1.833,5.2
		c4.763,3.901,8.821,8.518,12.954,13.033c-0.68,1.038-2.094,0.286-2.564,1.382C70.201,190.292,69.693,190.503,69.186,190.715z"/>
	<path fill-rule="evenodd" clip-rule="evenodd" fill="#3A8891" d="M63.958,96.329c1.625,11.269-4.207,19.428-11.285,27.069
		l-0.372,0.006l-0.368-0.056c-1.882-1.066-3.489-2.511-5.206-3.804c-0.05-0.414-0.101-0.827-0.151-1.24
		c0.355-0.575,0.883-1.093,1.486-0.551c1.999,1.799,4.106,0.481,4.841-0.798c3.478-6.049,10.193-10.479,9.61-18.625
		C62.444,97.372,63.118,96.739,63.958,96.329z"/>
	<path fill-rule="evenodd" clip-rule="evenodd" fill="#0E666E" d="M66.958,67.079c-0.769,4.449-1.39,8.931-2.378,13.33
		c-0.413,1.834-0.641,3.614-0.61,5.461c-1.394,0.825-2.904,1.293-4.509,1.469c-2.473-1.192-2.792-2.987-1.703-5.382
		c2.128-4.681,4.14-9.416,6.201-14.128C64.958,67.579,65.958,67.329,66.958,67.079z"/>
	<path fill-rule="evenodd" clip-rule="evenodd" fill="#35838C" d="M66.207,92.58c-0.447,2.02,1.948,3.229,1.501,5.249
		c3.863,6.283,1.838,12.45-0.529,18.517c-1.034,2.647-2.364,5.173-3.075,7.956c-0.5,1.956-1.648,3.318-3.865,3.382
		c-1.006-0.477-2.012-0.955-3.018-1.432c4.169-7.484,9.161-14.749,9.531-23.619c0.16-3.817-1.311-7.703-2.041-11.558
		C65.209,91.576,65.708,92.078,66.207,92.58z"/>
	<path fill-rule="evenodd" clip-rule="evenodd" fill="#11898E" d="M59.584,163.138c-0.325-2.686-1.702-3.664-4.526-3.964
		c-3.498-0.372-6.89-1.735-10.331-2.655c-2.132-0.569-4.273-1.077-6.463-0.261c2.62-3.035,5.636-5.591,9.148-7.542
		c2.532,0.64,4.11,2.593,5.838,4.31c1.83,1.819,3.667,3.621,5.801,5.092c1.04,1.191,2.447,2.221,1.886,4.141
		C60.486,162.551,60.035,162.845,59.584,163.138z"/>
	<path fill-rule="evenodd" clip-rule="evenodd" fill="#338189" d="M60.238,127.683c1.943-1.1,3.066-2.691,3.314-4.975
		c0.34-3.118,2.323-5.615,3.469-8.433c2.219-5.454,1.972-10.903,0.686-16.447c3.844,1.929,3.35,5.848,3.582,9.025
		c0.301,4.125-1.389,8.127-2.6,12.07c-0.786,2.56-2.61,4.751-2.697,7.617c-0.049,1.632-1.753,1.878-2.757,2.701
		C62.132,128.923,61.068,128.527,60.238,127.683z"/>
	<path fill-rule="evenodd" clip-rule="evenodd" fill="#3393AC" d="M177.211,236.588c2.938,0.792,5.43-0.818,8.094-1.505
		c-1.848,6.115-2.74,12.7-8.721,18.015c0-6.191,0-11.35,0-16.508C176.793,236.214,177,236.232,177.211,236.588z"/>
	<path fill-rule="evenodd" clip-rule="evenodd" fill="#05AAB4" d="M159.957,149.579c-1-2.5-2-5-3-7.499
		c0.55-1.974,1.655-0.536,2.057-0.123c2.813,2.896,6.328,4.585,9.955,6.118c1.445,2.443,2.438,5.019,2.318,7.92
		c0.346,1.33,0.51,2.657-0.131,4.326c-3.514-1.789-5.205-5.784-8.949-6.991C160.777,152.487,161.148,150.564,159.957,149.579z"/>
	<path fill-rule="evenodd" clip-rule="evenodd" fill="#0C8F9B" d="M225.207,54.331c-0.836,3.654-1.15,7.494-3.754,10.518
		c-1.602,0.735-3.334,0.679-5.033,0.826c-3.387,1.541-6.072,0.928-6.973-1.59c1.846,0.229,3.689,2.328,5.539,0.066
		c1.957-2.394,1.555-4.97,0.471-7.571c-0.146-0.76,0.334-1.11,0.908-1.401C219.318,54.974,222.09,52.848,225.207,54.331z"/>
	<path fill-rule="evenodd" clip-rule="evenodd" fill="#1D747F" d="M15.889,42.931c4.926,7.766,8.972,15.957,11.992,24.65
		c0.045,0.131,0.447,0.138,0.681,0.202c-0.967,1.009-1.935,2.018-2.903,3.026c-3.15-4.583-3.884-10.12-5.957-15.129
		c-1.634-3.949-2.452-8.209-4.555-11.982C15.395,43.443,15.642,43.187,15.889,42.931z"/>
	<path fill-rule="evenodd" clip-rule="evenodd" fill="#0F6B7A" d="M61.808,206.915c-0.064-1.088-0.521-1.28-1.666-1.224
		c-3.953,0.194-7.464-1.861-11.288-2.559c-3.235-0.589-5.405-3.157-4.393-7.054c3.563-0.748,6.252,1.874,9.481,2.525
		c2.486,0.501,4.693,2.137,7.194,2.895c0.924,0.28,1.79,0.933,1.383,2.209C62.532,204.832,62.573,205.963,61.808,206.915z"/>
	<path fill-rule="evenodd" clip-rule="evenodd" fill="#0B9EAB" d="M235.707,57.33c-1.797-1.203-3.291-2.71-4.504-4.499
		c0.252-0.25,0.504-0.502,0.754-0.752c2.734-2.651,6.514-1.763,9.703-2.876c0.854-0.114,1.648-0.006,2.297,0.626
		c-0.998,3.99-1.996,7.981-2.996,11.971c-0.244,0.033-0.488,0.066-0.734,0.099C238.105,60.983,236.779,59.283,235.707,57.33z"/>
	<path fill-rule="evenodd" clip-rule="evenodd" fill="#0E7383" d="M44.465,190.081c0.058-1.646,0.551-3.148,1.483-4.506
		c1.139-0.477,1.905,0.307,2.656,0.882c4.712,3.62,9.416,7.247,14.533,10.298c0.596,0.354,1.358,0.75,0.891,1.715
		c0,0.843-0.037,1.674-0.709,2.311c-0.73,0.102-1.551,0.538-2.188,0.111c-5.148-3.457-11.14-5.5-15.948-9.517
		C44.794,191.049,44.684,190.523,44.465,190.081z"/>
	<path fill-rule="evenodd" clip-rule="evenodd" fill="#0E6F7F" d="M44.465,190.081c5.123,4.015,11.519,5.941,16.555,10.091
		c0.713,0.588,1.778-0.489,2.298,0.608c-0.041,1.037-0.007,2.094-0.797,2.928c-2.721-2.342-6.23-3.274-9.434-4.358
		c-2.923-0.99-5.64-2.495-8.625-3.271c-0.032-0.821,0.132-1.707-0.749-2.245C43.653,192.52,43.375,191.164,44.465,190.081z"/>
	<path fill-rule="evenodd" clip-rule="evenodd" fill="#0D7687" d="M64.027,198.469c-6.37-3.815-12.222-8.359-18.079-12.895
		c0.173-1.146,0.474-2.235,1.352-3.07c1.275-0.571,2.136,0.343,3.041,0.919c4.531,2.884,8.545,6.462,12.836,9.67
		c1.176,0.88,2.315,1.97,1.533,3.743C64.728,197.483,64.602,198.07,64.027,198.469z"/>
	<path fill-rule="evenodd" clip-rule="evenodd" fill="#058996" d="M224.455,16.147c-1.133,4.396,2.441,7.276,3.598,10.936
		c0.346,1.1-0.178,0.894-0.701,1.037c-3.148-0.438-6.238-1.116-9.234-2.197c0.004-0.601,2.713,1.113,0.928-1.248
		c-1.859-2.458-0.484-6.133,2.779-7.638c-1.412-0.115-2.438-0.199-3.465-0.284C220.307,15.708,222.4,16.116,224.455,16.147z"/>
	<path fill-rule="evenodd" clip-rule="evenodd" fill="#0E7A8A" d="M64.71,196.836c0.005-1.418-0.955-2.307-1.94-3
		c-5.232-3.675-9.922-8.09-15.47-11.332c0.711-1.692,1.613-3.257,3.023-4.478c4.487,6.095,10.689,10.466,15.899,15.834
		C65.718,194.852,65.214,195.845,64.71,196.836z"/>
	<path fill-rule="evenodd" clip-rule="evenodd" fill="#2C8B90" d="M58.706,158.581c-4.554-2.384-7.347-6.785-11.293-9.865
		c1.509-1.572,3.406-2.543,5.336-3.465c3.585,0.452,4.482,3.638,6.156,6.043c0.528,1.371,1.14,2.742,1.242,4.205
		C60.231,156.708,60.765,158.303,58.706,158.581z"/>
	<path fill-rule="evenodd" clip-rule="evenodd" fill="#05ADB6" d="M168.969,148.075c-3.775,0.343-6.334-1.947-9.01-4.073
		c-0.919-0.729-1.301-2.397-3.002-1.922l-0.374-0.001h-0.374c-1.283-1.542-2.537-3.095-1.847-5.322
		c1.303-2.291,2.94-0.766,4.39-0.299c1.971,0.635,3.787,1.604,5.031,3.374C166.301,142.083,167.887,144.921,168.969,148.075z"/>
	<path fill-rule="evenodd" clip-rule="evenodd" fill="#1C6D75" d="M98.457,139.829c0.482,2.94,2.539,5.067,3.896,7.556
		c-1.818,1.367-3.787,2.433-5.998,3.018c-0.113,0.051-0.227,0.103-0.34,0.154c-0.34-4.072-3.63-6.951-4.399-10.854
		c-0.662-2.444-0.621-4.841,0.49-7.162c1.574-0.977,1.859,0.603,2.512,1.325C96.218,135.638,96.82,138.069,98.457,139.829z"/>
	<path fill-rule="evenodd" clip-rule="evenodd" fill="#22767E" d="M88.876,153.402c-0.547,0.666-1.307,0.76-2.095,0.779
		c-2.133,0.697-3.099-0.685-3.941-2.238c-0.75-1.384-1.254-2.871-1.747-4.36c-0.669-3.49-2.158-6.835-1.891-10.498
		c0.696-1.407,1.814-2.091,3.396-1.974c0.506,0.308,0.808,0.78,1.037,1.305c1.487,4.22,3.302,8.323,4.473,12.672
		C88.497,150.528,88.777,151.935,88.876,153.402z"/>
	<path fill-rule="evenodd" clip-rule="evenodd" fill="#2C8793" d="M59.447,41.556c-2.838-3.607-1.932-6.734,2.941-8.054
		c-1.478-0.114-2.316-0.18-3.156-0.245c4.062-0.523,8.124-1.046,12.187-1.57c0.762-0.176,1.649-0.568,1.482,0.858
		C68.416,35.549,63.931,38.553,59.447,41.556z"/>
	<path fill-rule="evenodd" clip-rule="evenodd" fill="#036884" d="M206.457,197.579c-3.313,0.087-6.852-1.304-9.746,1.499
		c-0.809-0.868,0.064-2.136-0.717-3.011c0.076-1.777,0.152-3.553,0.229-5.33c0.402-1.732-0.266-3.552,0.422-5.262
		c0.082-0.984,0.164-1.968,0.246-2.952c0.607-2.828-0.254-5.743,0.502-8.563c-0.461-1.54-0.357-3.09-0.066-4.642
		c0-2.574,0-5.148,0-7.724c0.309,0.007,0.619,0.015,0.928,0.021c-0.424,8.172,0.635,16.353-0.604,24.526
		c-0.379,2.513-0.932,4.828,2.725,6.112C202.734,193.084,204.451,195.741,206.457,197.579z"/>
	<path fill-rule="evenodd" clip-rule="evenodd" fill="#20737B" d="M88.876,153.402c-0.736-1.677-1.865-3.294-2.13-5.041
		c-0.627-4.133-2.752-7.672-4.038-11.531c1.056-0.921,2.25-0.977,3.521-0.57c0.985,0.416,1.693,1.133,2.212,2.051
		c0.849,3.125,2.577,5.883,3.739,8.877c0.589,1.519,0.645,3.142,0.491,4.763C91.551,152.812,90.288,153.3,88.876,153.402z"/>
	<path fill-rule="evenodd" clip-rule="evenodd" fill="#278186" d="M76.891,157.16c-1.873,0.834-3.829,1.353-5.868,1.567
		c-0.361,0.149-0.998,0.076-0.97-0.118c0.459-3.091-1.749-5.6-1.823-8.563c0.03-2.215-0.334-4.513,1.353-6.375
		c1.664-0.811,2.63,0.398,3.711,1.275c1.807,3.637,4.091,7.163,2.797,11.573C76.038,156.702,76.688,156.844,76.891,157.16z"/>
	<path fill-rule="evenodd" clip-rule="evenodd" fill="#0BA2AF" d="M228.193,31.081c-1.496,0.243-3.176-0.61-4.486,0.747
		c-1.291,1.344-3.156,0.881-4.68,1.502c-2.883,0.261-5.758,0.73-8.664,0.323c-1.111-0.876-1.418-2.273-0.955-3.316
		c0.707-1.595,0.289-2.681-0.695-3.813C215.352,27.418,221.938,28.546,228.193,31.081z"/>
	<path fill-rule="evenodd" clip-rule="evenodd" fill="#07A6B1" d="M162.207,153.33c1.721-1.333,2.641,0.289,3.67,1.097
		c1.813,1.424,3.5,3.006,5.236,4.518c0.041-0.693,0.107-1.82,0.174-2.947c1.141,4.285,0.244,8.187-2.229,11.79
		c-0.535-0.819-1.068-1.64-1.604-2.459c-1.25-2.75-2.5-5.5-3.75-8.25C163.207,155.829,162.707,154.579,162.207,153.33z"/>
	<path fill-rule="evenodd" clip-rule="evenodd" fill="#1D7178" d="M92.67,151.95c-0.54-4.897-4.484-8.616-4.713-13.621
		c0.692-1.02,1.633-1.4,2.836-1.111c1.109,0.515,1.083,1.756,1.664,2.61c0.919,2.305,1.556,4.801,3.719,6.348
		c1.928,1.38-0.826,2.864,0.179,4.226C95.277,151.275,94.061,151.82,92.67,151.95z"/>
	<path fill-rule="evenodd" clip-rule="evenodd" fill="#267981" d="M79.708,136.829c0.75,3.5,1.5,7,2.25,10.499
		c-2.543,0.786-4.003-1.142-5.777-2.293c-1.229-0.88-1.794-2.178-2.239-3.552c-0.065-1.708-1.648-2.854-1.712-4.564
		c0.395-0.08,0.789-0.159,1.183-0.238c1.702,0.241,1.819-0.87,1.795-2.103c1.146-0.765,2.351-1.058,3.669-0.458
		C79.847,134.809,80.48,135.605,79.708,136.829z"/>
	<path fill-rule="evenodd" clip-rule="evenodd" fill="#05C1B3" d="M45.99,234.251c1.146,2.048,1.845,4.253,2.318,6.539
		c0.614,1.549-0.186,2.341-1.561,2.628c-1.514,0.316-2.958,1.197-4.599,0.688c-1.789-2.303-3.078-4.89-4.266-7.532
		C39.974,233.667,43.404,235.433,45.99,234.251z"/>
	<path fill-rule="evenodd" clip-rule="evenodd" fill="#2A898E" d="M58.706,158.581c1.998-2.725-0.646-4.986-0.748-7.502
		c1.055-1.917,2.667-1.759,4.393-1.185c2.775,2.89,3.69,6.526,4.131,10.353c-1.746,0.951-3.472,1.959-5.544,2.012
		C60.193,161.032,59.45,159.807,58.706,158.581z"/>
	<path fill-rule="evenodd" clip-rule="evenodd" fill="#0C8087" d="M48.946,228.326c-0.347-0.954-0.694-1.909-1.042-2.862
		c0.322-0.963,0.701-1.837,1.787-2.234c2.879-1.055,8.905,2.072,9.734,5.091c-0.027,2.003-0.054,4.007-0.081,6.011
		c-0.337,0.181-0.649,0.152-0.934-0.112c-1.134-2.852-3.912-2.815-6.239-3.352C50.567,230.498,49.433,229.928,48.946,228.326z"/>
	<path fill-rule="evenodd" clip-rule="evenodd" fill="#28858A" d="M66.481,160.247c-1.959-3.055-2.524-6.676-4.024-9.918
		c0.125-0.129,0.249-0.257,0.371-0.388c1.504-0.65,3.125-0.65,4.712-0.847c0.843,0.023,1.243,0.645,1.667,1.235
		c-0.065,1.024,0.147,1.989,0.692,2.859c1.071,1.709,1.639,3.512,1.123,5.539C69.625,159.579,68.092,160.03,66.481,160.247z"/>
	<path fill-rule="evenodd" clip-rule="evenodd" fill="#0F626A" d="M36.18,103.858c0.278-0.254,0.555-0.509,0.833-0.763
		c-1.032,5.323,0.553,9.784,4.443,13.485c0.004,1.298-0.667,1.242-1.544,0.77c-3.392-0.749-5.974-3.061-8.941-4.629
		c0.735-3.347,2.609-6.12,4.477-8.896l0.019,0.012c0.642,1.529,0.325,3.076,0.274,4.331
		C36.296,106.998,35.354,105.307,36.18,103.858z"/>
	<path fill-rule="evenodd" clip-rule="evenodd" fill="#0C908F" d="M30.207,177.329c4.053-0.895,7.689,0.301,11.176,2.233
		c-0.678,1.523-1.355,3.047-2.033,4.569c-2.616,1.095-5.078-0.629-7.645-0.41c-0.345-0.037-0.655-0.166-0.938-0.362
		c-0.827-1.14-0.489-2.543-0.865-3.788c-0.091-0.31-0.148-0.626-0.187-0.945C29.7,178.125,29.81,177.672,30.207,177.329z"/>
	<path fill-rule="evenodd" clip-rule="evenodd" fill="#2E878D" d="M62.457,150.329c-1.544-0.016-3.107-0.145-4.5,0.75
		c-1.653-2.017-2.815-4.473-5.208-5.828c2.343-1.567,4.779-2.954,7.479-3.825C63.745,143.455,64.389,146.025,62.457,150.329
		L62.457,150.329z"/>
	<path fill-rule="evenodd" clip-rule="evenodd" fill="#0B9EAA" d="M208.713,26.523c1.24,0.722,2.74,1.138,1.59,3.253
		c-0.504,0.926-0.09,2.352-0.092,3.55c-0.502,0.401-1.002,0.455-1.506,0.004c-4.109-0.551-5.652-4.817-9.158-6.364
		c-1.086-0.48,0.775-1.146,0.912-1.905C203.303,25.028,206.031,25.648,208.713,26.523z"/>
	<path fill-rule="evenodd" clip-rule="evenodd" fill="#0299A7" d="M309.211,8.542c3.08,3.664,6.129,7.299,11.684,6.821
		c2.338-0.201,4.705-0.033,7.061-0.032c0.215,0.491,0.098,0.882-0.35,1.177c-3.184,0.997-6.334,1.19-9.4-0.427
		c-3.748-0.001-7.496-0.003-11.244-0.004l-0.002-0.002c-2.438-1.661-1.814-3.97-1.328-6.252c0.377-0.936,1.4-0.723,2.063-1.157
		C308.199,8.624,308.705,8.583,309.211,8.542z"/>
	<path fill-rule="evenodd" clip-rule="evenodd" fill="#439099" d="M118.01,115.058c-4.762-2.255-9.524-4.511-14.287-6.767
		c-1.57-1.429-2.252-2.868-0.053-4.343c5.104,2.571,10.697,4.446,13.901,9.723C117.816,114.074,117.869,114.593,118.01,115.058z"/>
	<path fill-rule="evenodd" clip-rule="evenodd" fill="#06B8AB" d="M41.497,220.733c0.987,3.033,1.973,6.065,2.96,9.098
		c0.789,1.731,0.361,2.779-1.652,2.329c-2.163-0.483-4.456-0.228-6.521-1.2c-1.585-1.871-2.022-4.012-1.483-6.373
		c0.128-0.359,0.346-0.666,0.635-0.915C37.912,223.646,40.465,223.761,41.497,220.733z"/>
	<path fill-rule="evenodd" clip-rule="evenodd" fill="#0F6C77" d="M45.194,214.831c1.5-3.422,3.813-4.001,7.441-1.804
		c1.016,0.614,1.663,1.848,3.069,1.8c0.352,1.066-0.577,1.424-1.099,2.01c-1.031,0.842-1.863,1.916-3.019,2.615
		c-0.315,0.137-0.644,0.191-0.984,0.168c-1.897-1.272-2.441,1.744-4.078,1.293C45.625,218.985,45.293,216.932,45.194,214.831z"/>
	<path fill-rule="evenodd" clip-rule="evenodd" fill="#096371" d="M213.215,228.348c-0.004-1.008-0.006-2.017-0.01-3.025
		c-0.775-1.689-0.48-3.467-0.197-5.154c0.766-4.591,0.66-9.192,0.479-13.801c-0.109-2.77,0.092-5.469,1.215-8.04
		c0.004-1.5,0.008-3,0.01-4.5c0.574-0.422,0.164-1.326,0.838-1.697c1.059,0.698,0.674,1.759,0.672,2.716
		c-0.004,6.967-0.201,13.941,0.045,20.9C216.428,220.316,215.146,224.37,213.215,228.348z"/>
	<path fill-rule="evenodd" clip-rule="evenodd" fill="#07B0A8" d="M27.307,211.803c-1.41-2.569-1.677-5.45-2.237-8.25
		c0.328-1.338,0.99-2.316,2.547-1.838c2.164,0.665,4.718,0.614,6.004,3.035c0.174,0.352,0.294,0.724,0.376,1.106
		c0.124,1.498,0.542,2.992,0.129,4.506C32.05,211.76,29.357,210.265,27.307,211.803z"/>
	<path fill-rule="evenodd" clip-rule="evenodd" fill="#257E84" d="M74.458,141.33c1.081,0.751,0.684,2.611,2.25,3
		c1.418,2.012,2.353,4.228,3.167,6.558c0.725,2.074,0.699,3.846-0.597,5.597c-0.683,0.626-1.536,0.646-2.387,0.675
		c-0.487-0.056-0.974-0.112-1.46-0.169c1.291-4.409-1.919-7.884-2.473-11.911C72.962,143.63,73.377,142.347,74.458,141.33z"/>
	<path fill-rule="evenodd" clip-rule="evenodd" fill="#0B878A" d="M48.946,228.326c1.804,2.175,4.615,1.882,6.917,2.366
		c2.491,0.523,2.97,1.618,2.857,3.676c0.733,1.788,0.199,3.654,0.333,5.478c-0.238,0.817-0.721,0.687-1.261,0.329
		c-0.81-3.196-2.751-4.125-5.78-2.861C50.452,234.5,49.724,231.405,48.946,228.326z"/>
	<path fill-rule="evenodd" clip-rule="evenodd" fill="#05B2B9" d="M163.783,139.832c-3.086-0.815-5.426-3.891-9.076-3.002
		c-0.25,0.342-0.5,0.358-0.75-0.001c-0.821-2.484-3.003-4.575-2.179-7.536C157.229,131.155,161.197,134.708,163.783,139.832z"/>
	<path fill-rule="evenodd" clip-rule="evenodd" fill="#0D9E9C" d="M23.537,186.333c-0.156-2.616,0.23-5.143,1.272-7.558
		c1.808-0.85,3.601-0.364,5.395,0.057l0.003-0.003c0.934,1.386-0.223,3.121,0.75,4.5v0.001c0.959,1.012,0.962,2.167,0.51,3.39
		c-2.26,2.366-4.645,0.134-6.971,0.188C24.133,186.79,23.814,186.596,23.537,186.333z"/>
	<path fill-rule="evenodd" clip-rule="evenodd" fill="#06BCAF" d="M36.209,230.578c2.275,0.158,4.6-0.401,6.809,0.73
		c1.716,0.88,1.313-0.63,1.438-1.478c0.877,1.347,1.379,2.824,1.533,4.421c-0.097,1.278-0.956,1.813-2.026,1.525
		c-2.179-0.583-4.097,0.226-6.081,0.798c-1.14-1.592-2.07-3.285-2.552-5.198C35.449,230.917,35.75,230.66,36.209,230.578z"/>
	<path fill-rule="evenodd" clip-rule="evenodd" fill="#237B82" d="M79.278,156.484c-0.239-0.06-0.479-0.119-0.718-0.179
		c2.721-4.509-1.774-7.9-1.852-11.976c1.577,1.301,3.252,2.432,5.249,2.998c1.444,2.399,1.037,6.103,4.824,6.854
		C84.39,155.307,81.915,156.159,79.278,156.484z"/>
	<path fill-rule="evenodd" clip-rule="evenodd" fill="#08AAA2" d="M33.953,210.333c-0.885-1.396-0.764-2.959-0.744-4.505
		c1.722,0.796,3.756,0.864,5.226,2.248c0.524,2.457,1.049,4.915,1.573,7.372c0.792,2.063-0.667,2.262-2.046,2.338
		c-1.233,0.07-2.379-0.367-3.373-1.138C33.199,214.664,32.401,212.616,33.953,210.333z"/>
	<path fill-rule="evenodd" clip-rule="evenodd" fill="#0B838F" d="M201.961,18.352c0.98,2.331-0.373,3.467-2.225,4.348
		c-3.777-0.343-7.588-0.42-11.281-1.42c-1.25-0.754-2.719,0.001-3.994-0.575c-0.428-0.031-1.221-0.004-0.967-0.494
		c0.191-0.368,1.18-0.321,1.813-0.459c1.998-0.75,4.146,0.167,6.148-0.554C194.936,18.643,198.391,17.773,201.961,18.352z"/>
	<path fill-rule="evenodd" clip-rule="evenodd" fill="#09ABA5" d="M33.204,205.081c-2.536-1.444-4.879-3.916-8.134-1.527
		c-0.649-1.857-1.116-3.744-0.94-5.737c-0.602-1.515,0.053-2.178,1.503-1.848c2.355,0.535,4.872,0.597,6.946,2.088
		c1.172,1.836,1.637,3.83,1.323,5.996C33.772,204.464,33.538,204.806,33.204,205.081z"/>
	<path fill-rule="evenodd" clip-rule="evenodd" fill="#07B1A7" d="M34.711,216.326c1.674-0.841,4.089,2.784,5.297-0.878
		c0.848,1.663,1.247,3.452,1.489,5.285c-0.208,4.358-1.027,4.778-6.036,3.094c-1.403-1.952-1.423-4.205-1.408-6.469
		C34.166,216.947,34.386,216.603,34.711,216.326z"/>
	<path fill-rule="evenodd" clip-rule="evenodd" fill="#039FAC" d="M333.215,26.61c-0.35,1.505-1.117,2.766-2.221,3.832
		c-1.082-1.919-1.105-4.231-2.287-6.112l-0.002,0c-1.635-2.677-1.521-5.406-0.242-8.17c1.055-1.072,2.145-0.762,3.246-0.083l0.002,0
		C334.902,19.204,334.98,22.775,333.215,26.61z"/>
	<path fill-rule="evenodd" clip-rule="evenodd" fill="#2C848A" d="M62.458,150.329c-0.042-3.144,0.701-6.483-2.23-8.903
		c1.602-1.097,3.399-1.732,5.251-2.241c2.343,3.122,1.918,6.836,2.229,10.394C66.071,150.62,64.236,150.275,62.458,150.329z"/>
	<path fill-rule="evenodd" clip-rule="evenodd" fill="#0A7490" d="M199.799,78.495c1.479-3.774-0.555-5.36-3.842-6.166
		c-0.055-0.107-0.184-0.246-0.152-0.318c1.256-2.989-0.072-4.407-2.959-4.89c-0.105-1.881,1.816-0.657,2.361-1.541
		c0.5-0.001,1-0.002,1.5-0.003c2.693-0.357,5.078,0.173,6.754,1.502c-0.889,2.517-2.24,4.902-2.178,7.689
		C201.076,76.125,200.686,77.41,199.799,78.495z"/>
	<path fill-rule="evenodd" clip-rule="evenodd" fill="#05C8B9" d="M42.148,244.107c1.233-0.713,2.302-1.774,3.939-1.553
		c1.271,0.173,2.1-0.394,2.22-1.762c1.551,2.022,1.158,4.683,2.243,6.859c-0.232,2.806-2.288,3.038-4.434,3.14
		C44.532,248.719,43.105,246.553,42.148,244.107z"/>
	<path fill-rule="evenodd" clip-rule="evenodd" fill="#0C7A83" d="M59.425,228.32c-2.135-3.806-8.315-5.338-11.521-2.856
		c-0.681-0.657-0.548-1.516-0.581-2.334c0.704-1.869,2.107-3.025,3.882-3.803l0.003,0.003c2.878,1.263,6.891,0.071,8.561,3.952
		c0.085,0.809,0.074,1.606-0.235,2.376C59.498,226.544,59.461,227.432,59.425,228.32z"/>
	<path fill-rule="evenodd" clip-rule="evenodd" fill="#08B6AD" d="M34.711,216.326c-0.002,0.251-0.004,0.503-0.007,0.755
		c-1.819,0.059-3.617,0.194-5.091,1.459c-1.3-2.063-1.682-4.441-2.306-6.736c1.412-4.119,4.453-0.88,6.646-1.471
		C33.586,212.409,34.666,214.302,34.711,216.326z"/>
	<path fill-rule="evenodd" clip-rule="evenodd" fill="#0B9492" d="M30.955,187.08c0-1.251,0.001-2.501,0.002-3.75
		c2.956-1.386,5.603,0.468,8.394,0.802c-0.502,2.006-1.005,4.011-1.507,6.016c-2.138-0.248-3.938-1.69-6.137-1.735
		C31.178,188.124,30.763,187.772,30.955,187.08z"/>
	<path fill-rule="evenodd" clip-rule="evenodd" fill="#085B6C" d="M176.568,184.794c1.271-0.933-0.023-2.822,1.383-3.705
		c1.389,1.401,1.131,3.213,1.176,4.922c0.141,5.217-0.18,10.431-0.082,15.645c0.002,2.498,0.346,5.023-0.557,7.454
		c-0.832,1.045-1.342,0.691-1.588-0.414c-0.152-0.684,0.029-1.422-0.295-2.088C176.592,199.336,176.58,192.066,176.568,184.794z"/>
	<path fill-rule="evenodd" clip-rule="evenodd" fill="#0BA8A2" d="M32.454,198.33c-2.225-0.485-4.483-0.86-6.664-1.499
		c-1.139-0.335-1.583-0.156-1.66,0.984c-0.806-1.51-0.685-3.134-0.58-4.756c0.25-0.499,0.484-1.011,1.062-1.229
		c2.601-0.022,5.085,0.552,7.504,1.48C32.732,194.95,33.733,196.564,32.454,198.33z"/>
	<path fill-rule="evenodd" clip-rule="evenodd" fill="#0B9895" d="M31.703,187.831c2.432-0.249,4.681-0.013,6.14,2.316
		c-0.742,0.931-0.753,1.923-0.251,2.959c-0.648,1.212,0.106,2.623-0.546,3.834c-3.162-0.297-5.104-2.024-5.937-5.063
		C30.674,190.433,30.578,189.042,31.703,187.831z"/>
	<path fill-rule="evenodd" clip-rule="evenodd" fill="#08BBB0" d="M29.612,218.54c0.906-3.247,2.907-2.676,5.091-1.459
		c0.179,2.257,1.113,4.43,0.757,6.746l-0.008,0.002c-1.055,0.35-1.596,1.719-2.945,1.488
		C31.019,223.282,30.403,220.874,29.612,218.54z"/>
	<path fill-rule="evenodd" clip-rule="evenodd" fill="#2A7D85" d="M74.458,141.33c0.045,1.468-0.308,2.776-1.501,3.749
		c-1.304,0.109-1.96-1.078-3-1.5c-1.586-1.369-2.055-3.219-2.236-5.193c1.518-0.441,2.837-1.495,4.508-1.467
		C73.861,137.94,74.834,139.293,74.458,141.33z"/>
	<path fill-rule="evenodd" clip-rule="evenodd" fill="#0E9897" d="M30.204,178.832c-1.813,1.359-3.601,0.315-5.395-0.057
		c0.592-3.525,1.943-6.751,3.868-9.747c0.988,2.679,1.19,5.502,1.53,8.301C30.207,177.83,30.206,178.331,30.204,178.832z"/>
	<path fill-rule="evenodd" clip-rule="evenodd" fill="#2B8187" d="M67.721,138.386c1.752,1.297,1.69,3.375,2.236,5.193
		c-0.747,2.195-0.862,4.46-0.75,6.75c-0.5-0.25-1-0.5-1.5-0.751c-1.96-3.203-1.191-6.992-2.229-10.394
		C66.226,138.918,66.974,138.652,67.721,138.386z"/>
	<path fill-rule="evenodd" clip-rule="evenodd" fill="#0D7681" d="M59.385,223.071c-0.737-0.564-1.17-1.699-2.345-1.468
		c-2.449,0.483-4.138-0.878-5.832-2.273c0.718-1.282,1.718-2.282,3-3.001c2.174-0.895,3.636,0.475,5.168,1.624
		c0.299,0.43,0.469,0.934,0.768,1.365c-0.009,0.261-0.018,0.522-0.027,0.782C59.403,220.975,60.316,222.25,59.385,223.071z"/>
	<path fill-rule="evenodd" clip-rule="evenodd" fill="#0A9291" d="M57.956,239.579c0.237,0.248,0.474,0.496,0.71,0.745
		c0.867,2.172,0.174,4.442,0.415,6.646c-0.239,1.484-1.199,1.247-1.455,0.271c-0.455-1.736-1.551-1.674-2.831-1.592
		c-1.229-2.1-1.706-4.447-2.233-6.778C54.574,237.483,56.286,238.374,57.956,239.579z"/>
	<path fill-rule="evenodd" clip-rule="evenodd" fill="#05AAB7" d="M333.215,26.61c1.301-3.768-0.553-7.087-1.504-10.533
		c1.773,0.356,3.586-0.659,5.344,0.16C336.561,19.985,335.334,23.463,333.215,26.61z"/>
	<path fill-rule="evenodd" clip-rule="evenodd" fill="#0AABA5" d="M54.796,245.649c1.122-0.32,0.725-2.568,2.205-2.079
		c1.993,0.659,0.15,3.095,1.551,4.194c0.974,1.564,0.523,3.203,0.249,4.832c0.029,0.902,0.057,1.804,0.086,2.706
		c-1.51,0.597-1.085-0.896-1.545-1.432C56.493,251.129,55.645,248.389,54.796,245.649z"/>
	<path fill-rule="evenodd" clip-rule="evenodd" fill="#0CA69F" d="M36.945,196.818c0.179-1.244-0.438-2.626,0.647-3.712
		c0.055,5.003,0.125,10.005,0.842,14.97c-1.869-0.455-4.397,0.625-5.226-2.248c-0.001-0.249-0.002-0.498-0.004-0.747
		c0.002-0.252,0.005-0.503,0.007-0.754c2-0.985,3.298-2.326,2.853-4.824C35.897,198.563,36.141,197.545,36.945,196.818z"/>
	<path fill-rule="evenodd" clip-rule="evenodd" fill="#0F727E" d="M59.453,218.579c-1.762-0.718-3.279-2.007-5.245-2.25
		c0.499-0.501,0.997-1.001,1.496-1.502c0.843-0.716,1.852-1.308,2.495-2.172c1.543-2.078,1.969-0.279,2.681,0.65
		c0.092,1.139,0.115,2.266-0.532,3.285c0.475,0.157-0.746,0.023-0.289-0.178c0.458-0.202,0.137-0.741-0.112-0.309
		C59.506,216.87,60.194,217.868,59.453,218.579z"/>
	<path fill-rule="evenodd" clip-rule="evenodd" fill="#08D4C6" d="M52.029,252.932c0.712,2.752,1.425,5.504,2.384,9.211
		c-3.042-2.398-4.25-4.861-5.561-7.245C48.21,251.494,50.441,252.732,52.029,252.932z"/>
	<path fill-rule="evenodd" clip-rule="evenodd" fill="#027582" d="M195.211,134.582c-0.303,4.133,1.359,8.158,0.67,12.313
		c-1.598-7.54-2.311-15.139-1.463-22.836c1.297-0.099,1.426,0.915,1.707,1.788C196.188,128.795,197.094,131.835,195.211,134.582z"/>
	<path fill-rule="evenodd" clip-rule="evenodd" fill="#2F7D86" d="M107.46,140.573c0.17-1.059-0.574-2.615,0.493-3.075
		c1.045-0.449,2.448,0.114,3.153,1.368c0.337,0.601,0.846,0.871,1.502,0.928c-1.368,1.893-3.192,3.253-5.171,4.433
		C107.445,143.009,107.453,141.791,107.46,140.573z"/>
	<path fill-rule="evenodd" clip-rule="evenodd" fill="#08CDBF" d="M52.029,252.932c-0.883,0.939-3.312-0.62-3.176,1.965
		c-1.364-1.066-2.017-2.607-2.736-4.105c1.168-1.483,3.644-1.121,4.434-3.14C51.991,249.147,50.555,251.447,52.029,252.932z"/>
	<path fill-rule="evenodd" clip-rule="evenodd" fill="#176675" d="M177.211,236.588l-0.314-0.013l-0.313,0.014
		c0.002-4.749,0.004-9.498,0.006-14.247c1.332-0.318,0.715,1.145,1.344,1.467C177.627,228.066,178.734,232.402,177.211,236.588z"/>
	<path fill-rule="evenodd" clip-rule="evenodd" fill="#0C8D8E" d="M57.956,239.579c-1.798-0.236-3.595-0.472-5.393-0.708
		c-0.184-0.519-0.367-1.038-0.551-1.558c0.809-3.184,2.961-1.301,4.58-1.154C59.135,236.388,57.432,238.458,57.956,239.579z"/>
	<path fill-rule="evenodd" clip-rule="evenodd" fill="#006977" d="M214.713,172.081c-0.002-8.5-0.002-17-0.002-25.5
		c0.268-0.34,0.537-0.343,0.811-0.005c-0.012,8.501-0.021,17-0.033,25.5C215.232,172.417,214.975,172.42,214.713,172.081z"/>
	<path fill-rule="evenodd" clip-rule="evenodd" fill="#14899C" d="M214.707,101.577c1.559,2.428,0.24,5.179,0.867,7.711
		c0.252,5.931,0.367,11.859-0.051,17.788c-0.271,0-0.545,0-0.816,0C214.707,118.577,214.707,110.077,214.707,101.577z"/>
	<path fill-rule="evenodd" clip-rule="evenodd" fill="#29DBCF" d="M57.341,253.871c0.515,0.478,1.03,0.955,1.545,1.432
		c1.058,1.836,0.597,3.822,0.516,5.755c-0.037,0.877-0.413,1.81-1.5,1.744c-1.518-0.094-0.689-1.22-0.683-1.941
		C57.243,258.53,57.299,256.2,57.341,253.871z"/>
	<path fill-rule="evenodd" clip-rule="evenodd" fill="#09C1B5" d="M32.508,225.317c0.934-0.591,1.117-2.666,2.945-1.488
		c-0.357,2.318,0.581,4.491,0.756,6.749c-0.293,0.267-0.586,0.532-0.878,0.799C34.015,229.532,33.092,227.503,32.508,225.317z"/>
	<path fill-rule="evenodd" clip-rule="evenodd" fill="#059AA9" d="M328.707,24.33c1.945,1.595,3.203,3.447,2.287,6.112
		c-0.479,1.202-1.141,2.267-2.238,3.008C328.738,30.41,328.723,27.37,328.707,24.33z"/>
	<path fill-rule="evenodd" clip-rule="evenodd" fill="#056572" d="M214.713,172.081c0.258-0.001,0.518-0.004,0.775-0.006
		c0.02,6.686,0.039,13.371,0.061,20.056c-0.084,0.661-0.174,1.32-0.838,1.697C214.713,186.579,214.713,179.33,214.713,172.081z"/>
	<path fill-rule="evenodd" clip-rule="evenodd" fill="#0E97A3" d="M235.707,57.33c1.809,1.224,3.352,2.711,4.52,4.57
		c-1.686,0.791-3.475,0.833-5.283,0.739C235.973,60.98,235.67,59.131,235.707,57.33z"/>
	<path fill-rule="evenodd" clip-rule="evenodd" fill="#0F717B" d="M51.206,219.327c-0.996,1.571-2.248,2.882-3.882,3.803
		c-0.267-0.739-0.533-1.479-0.8-2.217C47.52,218.718,48.563,216.662,51.206,219.327z"/>
	<path fill-rule="evenodd" clip-rule="evenodd" fill="#006C7F" d="M215.521,146.575c-0.271,0.002-0.541,0.004-0.811,0.005
		c-0.002-5.103-0.025-10.207,0.014-15.309c0.008-1.191-0.412-2.531,0.797-3.467C215.93,134.062,215.963,140.319,215.521,146.575z"/>
	<path fill-rule="evenodd" clip-rule="evenodd" fill="#0A6780" d="M176.592,94.851c1.01,6.232,0.998,12.465,0.002,18.699
		C176.594,107.316,176.592,101.083,176.592,94.851z"/>
	<path fill-rule="evenodd" clip-rule="evenodd" fill="#0D6D7E" d="M176.605,206.608c1.045,0.713,0.137,2.305,1.326,2.953
		c0.637,0.742,0.492,1.497,0.039,2.258c-0.006,1.755-0.014,3.51-0.02,5.265c-0.391,0.375-0.588,1.124-1.385,0.724
		C176.58,214.075,176.592,210.341,176.605,206.608z"/>
	<path fill-rule="evenodd" clip-rule="evenodd" fill="#1AA7A4" d="M58.801,252.596c-0.083-1.611-0.165-3.221-0.248-4.832
		c0.037-2.48,0.076-4.961,0.114-7.44c0.017-1.985,0.035-3.972,0.053-5.957c0.208-0.018,0.417-0.03,0.625-0.036
		C59.429,240.426,59.536,246.524,58.801,252.596z"/>
	<path fill-rule="evenodd" clip-rule="evenodd" fill="#317F88" d="M103.67,103.949c-1.244,1.463-0.172,2.898,0.053,4.343
		c0,0-0.042,0.083-0.042,0.083c-0.981,0.395-1.653-0.033-2.186-0.826c-0.345-0.582-0.907-0.713-1.523-0.733
		c-0.296-0.293-0.486-0.645-0.574-1.055c0.13-1.462,0.268-2.919,2.306-2.824C102.36,103.274,103.015,103.612,103.67,103.949z"/>
	<path fill-rule="evenodd" clip-rule="evenodd" fill="#0B687D" d="M183.869,249.161c1.559,1.719,3.619,0.57,5.412,0.945
		c-2.336,1.92-5.025,2.381-8.098,1.892C182.736,251.559,182.834,249.948,183.869,249.161z"/>
	<path fill-rule="evenodd" clip-rule="evenodd" fill="#3C8A93" d="M101.705,102.937c-1.163,0.726-1.599,1.857-1.748,3.146
		c-0.378,0.413-0.871,0.455-1.385,0.429c-0.668-0.142-1.272-0.441-1.868-0.765c-0.631-0.495-1.595-0.776-1.263-1.909
		c1.592-0.557,3.184-1.113,4.776-1.67C100.712,102.425,101.208,102.681,101.705,102.937z"/>
	<path fill-rule="evenodd" clip-rule="evenodd" fill="#1C6F81" d="M190.561,210.309c-1.172-3.866,0.182-7.53,0.896-11.245
		c0.105,0.159,0.213,0.318,0.318,0.478c-0.021,1.131,0.291,2.287-0.258,3.378C191.734,205.452,191.049,207.868,190.561,210.309z"/>
	<path fill-rule="evenodd" clip-rule="evenodd" fill="#0E828D" d="M138.961,76.806c1.153-1.545,3.351,0.09,4.496-1.478
		c2.433-2.071,4.903-0.447,7.361-0.076l0.297,0.204C147.104,76.271,143.058,76.763,138.961,76.806z"/>
	<path fill-rule="evenodd" clip-rule="evenodd" fill="#0D7694" d="M195.209,125.58c-0.018-0.635-0.174-1.198-0.791-1.521
		c0.004-0.495,0.008-0.988,0.014-1.482c1.508-0.79,3.016,0.332,4.523-0.001c0,0.25,0,0.5,0,0.75
		C197.984,124.54,197.596,126.721,195.209,125.58z"/>
	<path fill-rule="evenodd" clip-rule="evenodd" fill="#0E6F7F" d="M43.628,195.052c-0.002,3.442-0.005,6.884-0.008,10.327
		C42.851,201.938,42.817,198.495,43.628,195.052z"/>
	<path fill-rule="evenodd" clip-rule="evenodd" fill="#277D87" d="M192.205,187.829c0.043-0.854-0.137-1.803,0.951-2.206
		c-0.219,3.303,0.123,6.651-0.834,9.892c-0.49-0.496-0.869-1.057-1.021-1.751C190.99,191.694,190.975,189.666,192.205,187.829z"/>
	<path fill-rule="evenodd" clip-rule="evenodd" fill="#BDD8DA" d="M46.727,119.543c2.561,0.139,3.649,2.291,5.206,3.804
		C49.428,123.131,47.804,121.713,46.727,119.543z"/>
	<path fill-rule="evenodd" clip-rule="evenodd" fill="#038D9B" d="M290.467,51.358c2.225-1.997,4.889-2.436,7.746-2.193
		C295.775,50.401,293.168,51.042,290.467,51.358z"/>
	<path fill-rule="evenodd" clip-rule="evenodd" fill="#058996" d="M218.432,16.708c-2.902,1.877-6.1,0.445-9.135,0.818
		C212.258,16.329,215.393,17.056,218.432,16.708z"/>
	<path fill-rule="evenodd" clip-rule="evenodd" fill="#026B88" d="M197.393,173.96c-0.168,2.854,0.686,5.769-0.502,8.563
		C197.012,179.667,196.582,176.777,197.393,173.96z"/>
	<path fill-rule="evenodd" clip-rule="evenodd" fill="#22727A" d="M39.912,117.349c0.6-0.086,1.214-0.141,1.544-0.77
		c1.485,0.235,2.039,1.421,3.549,3.09C42.472,119.056,41.144,118.313,39.912,117.349z"/>
	<path fill-rule="evenodd" clip-rule="evenodd" fill="#029EAE" d="M265.777,57.246c2.172-0.637,4.219-2.278,6.646-0.81
		c-1.934,0.382-3.809,1.124-5.834,0.954C266.318,57.342,266.049,57.294,265.777,57.246z"/>
	<path fill-rule="evenodd" clip-rule="evenodd" fill="#06636C" d="M66.959,83.579c1.5,0,3-0.001,4.499-0.001
		c0.787,0.03,1.63-0.142,2.216,0.615c-1.148,0.074-2.296,0.148-3.445,0.223C69.051,84.481,67.596,85.628,66.959,83.579z"/>
	<path fill-rule="evenodd" clip-rule="evenodd" fill="#009E99" d="M24.21,192.33c-0.22,0.243-0.439,0.486-0.659,0.729
		c-0.004-2.242-0.009-4.484-0.014-6.727c0.222,0,0.445-0.001,0.667-0.002C25.748,188.329,25.584,190.329,24.21,192.33z"/>
	<path fill-rule="evenodd" clip-rule="evenodd" fill="#0E666E" d="M66.959,83.579c0.872,1.129,2.175,0.573,3.269,0.836
		c-1.224,0.687-2.595,0.557-3.916,0.706c-0.332-0.114-0.665-0.228-0.997-0.34C65.863,84.38,66.411,83.979,66.959,83.579z"/>
	<path fill-rule="evenodd" clip-rule="evenodd" fill="#2D939D" d="M191.455,19.197c-1.959,1.186-4.086,0.516-6.148,0.555
		C187.293,18.866,189.375,19.045,191.455,19.197z"/>
	<path fill-rule="evenodd" clip-rule="evenodd" fill="#0D8690" d="M148.698,24.423c-0.349-0.064-0.698-0.128-1.048-0.192
		c2.029-0.923,4.184-0.671,6.312-0.667C152.405,25.06,150.423,23.957,148.698,24.423z"/>
	<path fill-rule="evenodd" clip-rule="evenodd" fill="#038E9C" d="M230.35,28.866c1.543,0.453,3.748-1.251,4.609,1.417
		C233.375,29.966,231.76,29.752,230.35,28.866z"/>
	<path fill-rule="evenodd" clip-rule="evenodd" fill="#0D6272" d="M176.566,217.807c0.463-0.24,0.924-0.482,1.385-0.724
		c-0.01,1.25-0.018,2.499-0.027,3.748c-0.809,0.414-1.035-0.235-1.344-0.735C176.576,219.333,176.572,218.571,176.566,217.807z"/>
	<path fill-rule="evenodd" clip-rule="evenodd" fill="#186A7A" d="M192.107,193.961c0.072,0.518,0.143,1.035,0.215,1.553
		c0.143,1.211,0.176,2.414-0.277,3.579c-0.197,0.317-0.389,0.313-0.572-0.013l-0.016-0.017c-0.004-1.246-0.01-2.491-0.014-3.737
		C191.002,194.548,190.916,193.944,192.107,193.961z"/>
	<path fill-rule="evenodd" clip-rule="evenodd" fill="#0C8087" d="M59.385,223.071c0.201-1-0.261-2.164,0.732-2.971
		c0.058,1.878,0.181,3.762-0.583,5.555C59.484,224.795,59.435,223.933,59.385,223.071z"/>
	<path fill-rule="evenodd" clip-rule="evenodd" fill="#008F9D" d="M184.693,22.891c-1.6,1.331-3.496,0.414-5.234,0.687
		c0.598-0.921,1.602-0.679,2.457-0.86C182.842,22.775,183.768,22.833,184.693,22.891z"/>
	<path fill-rule="evenodd" clip-rule="evenodd" fill="#0E767F" d="M104.479,80.671c1.674-1.603,3.707-0.579,5.576-0.757
		C108.292,80.859,106.371,80.661,104.479,80.671z"/>
	<path fill-rule="evenodd" clip-rule="evenodd" fill="#055A6B" d="M176.58,220.096c0.447,0.245,0.896,0.49,1.344,0.735
		c0.004,0.992,0.008,1.985,0.01,2.978c-0.447-0.488-0.895-0.979-1.344-1.467C176.588,221.593,176.584,220.844,176.58,220.096z"/>
	<path fill-rule="evenodd" clip-rule="evenodd" fill="#026B88" d="M196.645,185.475c-0.1,1.758,0.527,3.574-0.422,5.263
		C196.123,188.963,195.973,187.186,196.645,185.475z"/>
	<path fill-rule="evenodd" clip-rule="evenodd" fill="#036B75" d="M92.458,31.075c0.001-0.218,0.001-0.436,0-0.654
		c0.675-0.068,1.351-0.137,2.027-0.206c0.853,0.203,1.865-0.049,2.471,0.862C95.457,31.077,93.958,31.076,92.458,31.075z"/>
	<path fill-rule="evenodd" clip-rule="evenodd" fill="#026C79" d="M59.453,218.579c0.011-0.864,0.005-1.729,0.05-2.592
		c0.006-0.123,0.258-0.233,0.396-0.35c0.149,0.318,0.299,0.636,0.448,0.953c-0.067,0.909-0.135,1.818-0.202,2.728
		C59.915,219.072,59.684,218.825,59.453,218.579z"/>
	<path fill-rule="evenodd" clip-rule="evenodd" fill="#1A7383" d="M189.014,219.291c-0.967-1.202-0.449-2.484,0.035-3.788
		c0.084,0.576,0.166,1.151,0.248,1.727C189.203,217.916,189.107,218.604,189.014,219.291z"/>
	<path fill-rule="evenodd" clip-rule="evenodd" fill="#04656E" d="M76.167,83.683c-0.228-0.063-0.491-0.076-0.677-0.201
		c-0.334-0.227-0.413-0.604,0.094-0.602c1.143,0.004,2.394-0.438,3.352,0.612C78.012,83.556,77.089,83.62,76.167,83.683z"/>
	<path fill-rule="evenodd" clip-rule="evenodd" fill="#0E767F" d="M99.973,81.23c1.059-1.13,2.509-0.417,3.729-0.792
		c0.278,0.068,0.556,0.137,0.834,0.206C103.07,81.26,101.515,81.199,99.973,81.23z"/>
	<path fill-rule="evenodd" clip-rule="evenodd" fill="#B1D4D8" d="M72.901,32.545c-0.193-0.807-0.956-0.628-1.482-0.858
		c0.778-0.649,1.757-0.992,2.461-0.229C74.254,31.865,73.518,32.41,72.901,32.545z"/>
	<path fill-rule="evenodd" clip-rule="evenodd" fill="#03A0AE" d="M307.693,8.665c-0.498,0.228-0.996,0.457-1.494,0.684
		c-0.732,0.55-1.471,0.696-2.229,0.045l-0.066-0.161C305.09,8.527,306.379,8.515,307.693,8.665z"/>
	<path fill-rule="evenodd" clip-rule="evenodd" fill="#00626B" d="M81.779,31.738c0.328,0.141,0.656,0.281,0.984,0.422
		c-0.367,0.695-1.031,0.302-1.555,0.424c-0.603-0.018-1.16-0.13-1.491-0.715C80.404,31.825,81.091,31.782,81.779,31.738z"/>
	<path fill-rule="evenodd" clip-rule="evenodd" fill="#055D6B" d="M193.869,211.846c0.707,0.642,0.615,1.492,0.557,2.307
		c-0.018,0.23-0.285,0.443-0.439,0.664c-0.133-0.31-0.268-0.619-0.402-0.929C193.68,213.208,193.775,212.528,193.869,211.846z"/>
	<path fill-rule="evenodd" clip-rule="evenodd" fill="#2D939D" d="M184.461,20.705c1.369-0.075,2.797-0.554,3.994,0.575
		C187.084,21.354,185.703,21.509,184.461,20.705z"/>
	<path fill-rule="evenodd" clip-rule="evenodd" fill="#1D7693" d="M191.473,199.081c0.191-0.012,0.383-0.008,0.572,0.012
		c0.039,1.307,0.096,2.613-0.527,3.827C191.502,201.64,191.488,200.36,191.473,199.081z"/>
	<path fill-rule="evenodd" clip-rule="evenodd" fill="#01596A" d="M195.994,196.067c1.047,0.811,0.615,1.975,0.717,3.011
		c-1.57-0.338-0.252-1.689-0.834-2.374C195.754,196.462,195.791,196.25,195.994,196.067z"/>
	<path fill-rule="evenodd" clip-rule="evenodd" fill="#0B8FA1" d="M97.708,186.343c0-0.255,0-0.51,0-0.765
		c1.365,0.03,2.729,0.061,4.096,0.091C100.539,186.5,99.104,186.297,97.708,186.343z"/>
	<path fill-rule="evenodd" clip-rule="evenodd" fill="#01A7B4" d="M331.709,16.077c-1.002,0-2.002,0.001-3.002,0.002
		c-0.25,0.263-0.498,0.261-0.746-0.004c0-0.248-0.002-0.497-0.006-0.745c0-2.5,0-5,0-7.5
		C330.961,9.781,330.01,13.532,331.709,16.077z"/>
	<path fill-rule="evenodd" clip-rule="evenodd" fill="#026381" d="M214.701,198.328c-0.322,8.046,0.598,16.132-0.76,24.144
		c-0.162,0.964-0.486,1.901-0.736,2.852c-0.498,0.002-0.998,0.003-1.496,0.005c-0.926-0.504-1.508-1.257-1.621-2.317
		c-0.559-5.248-2.143-10.356-2.131-15.681c0-0.251,0-0.502,0-0.753C211.311,204.731,211.861,200.592,214.701,198.328z"/>
	<path fill-rule="evenodd" clip-rule="evenodd" fill="#056E8B" d="M195.209,125.58c1.744,0.074,2.365-1.721,3.746-2.254
		c0.246,3.885-1.602,7.438-1.75,11.31c-0.076,1.976-1.297,0.251-1.994-0.054C195.211,131.581,195.209,128.58,195.209,125.58z"/>
	<path fill-rule="evenodd" clip-rule="evenodd" fill="#046784" d="M177.959,160.078c0-6.81,0.006-13.621-0.008-20.431
		c-0.002-1.49-0.074-2.98,0.756-4.319c1.793,0.905,2.139,2.715,2.533,4.374c1.326,5.589,4.523,10.498,5.801,16.071
		c0.424,1.842,2.811,1.703,2.922,3.57c-1.25,4.5-2.5,9-3.75,13.5c-2.48-0.346-3.887-1.904-4.928-4.075
		C179.938,165.954,179.305,162.882,177.959,160.078z"/>
	<path fill-rule="evenodd" clip-rule="evenodd" fill="#096B88" d="M192.963,67.083c5.592-0.008,5.592-0.008,2.994,5.246
		c-1,1.5-2,3-3,4.5c-0.221-0.418-0.379-1.15-0.672-1.209c-4.807-0.97-9.361-3.041-14.33-3.29c-0.227,0-0.453,0.003-0.68,0.011
		c2.461-3.15,6.324-3.298,9.686-4.521C188.91,67.15,190.805,66.041,192.963,67.083z"/>
	<path fill-rule="evenodd" clip-rule="evenodd" fill="#0A6780" d="M177.959,102.325c0-3.248,0-6.496,0-9.745
		C182.32,96.055,182.32,96.055,177.959,102.325z"/>
	<path fill-rule="evenodd" clip-rule="evenodd" fill="#0B8A96" d="M195.207,35.576c1.316-1.356,2.998-0.503,4.5-0.748
		c2.848-1.057,3.979,0.046,3.68,2.933c-0.076,0.741-0.08,1.529-0.35,2.203c-1.973,4.925-2.82,10.207-4.83,15.116
		c-3.936,1.011-7.898,1.808-12,1.5c-0.004-1.823,0.41-3.739,2.166-4.352c2.918-1.02,3.613-3.41,3.676-5.774
		C192.154,42.479,194.104,39.179,195.207,35.576z"/>
	<path fill-rule="evenodd" clip-rule="evenodd" fill="#0396A4" d="M327.961,16.076c0.25,0.001,0.498,0.002,0.746,0.004
		c-0.002,2.75-0.002,5.5-0.002,8.25c-3.855-2.298-7.514-4.846-10.5-8.25C321.457,16.08,324.709,16.078,327.961,16.076z"/>
	<path fill-rule="evenodd" clip-rule="evenodd" fill="#0393A1" d="M303.971,9.395c0.744-0.015,1.486-0.031,2.229-0.045
		c0.186,2.249-0.494,4.597,0.76,6.725c-2,0.001-4.002,0.003-6.002,0.004c-0.25,0-0.5,0-0.75,0
		c-9.104-0.663-17.529,2.08-26.123,4.608c-6.463,1.902-12.594,4.449-18.803,6.92c-4.377,1.742-7.951-1.264-7.246-6.026
		c0.137-0.93,0.176-1.77-0.26-2.495c-1.604-2.673-0.471-3.932,2.178-4.501c2.047,1.206,0.633,3.067,0.654,4.521
		c0.045,3.296,1.352,4.246,4.418,3.428c8.375-2.235,16.826-4.217,24.996-7.153c3.051-1.096,6.773-0.356,9.152-3.221
		c-0.211-0.952-1.535-0.125-1.656-1.302C293.059,10.708,298.635,11.293,303.971,9.395z"/>
	<path fill-rule="evenodd" clip-rule="evenodd" fill="#0B8E99" d="M198.207,55.079c0.43-4.147,0.449-8.372,2.973-12.034
		c1.311-1.902,0.887-4.312,1.363-6.465c0.473-2.138-1.584-1.615-2.836-1.751c2.891-1.561,6.012-0.368,9-0.748
		c1.047,0.264,1.709,0.876,1.799,1.999c-1.361,4.077-1.99,8.365-3.887,12.312c-1.531,3.188-0.805,4.43,2.689,6.079
		c0.578,0.273,1.094,0.579,0.898,1.358C206.174,56.13,202.199,55.463,198.207,55.079z"/>
	<path fill-rule="evenodd" clip-rule="evenodd" fill="#0B909D" d="M210.207,55.828c-0.414-0.235-0.854-0.71-1.238-0.669
		c-4.227,0.453-4.955-2.594-3.838-5.134c2.07-4.714,2.418-9.984,5.076-14.443c3.01,0.215,4.229,2.529,5.545,4.731
		c-0.6,2.672-1.66,5.204-2.684,7.719c-1.066,2.622-1.566,4.962,0.736,7.16c0.359,0.342,0.395,0.891,0.152,1.386
		C212.707,56.328,211.457,56.078,210.207,55.828z"/>
	<path fill-rule="evenodd" clip-rule="evenodd" fill="#0B93A0" d="M213.957,56.578c-3.586-4.257-3.346-8.378,0.912-15.547
		c0.189-0.32,0.391-0.633,0.588-0.949c0.768-0.376,1.371,0.033,1.984,0.41c1.559,1.196,3.389,2.184,3.523,4.497
		c-1.225,3.772-1.039,8.163-4.758,10.84c-0.25,0.25-0.5,0.5-0.75,0.751C214.957,56.579,214.457,56.578,213.957,56.578z"/>
	<path fill-rule="evenodd" clip-rule="evenodd" fill="#0E7E97" d="M203.461,67.08c-2.479,0.521-4.338-1.743-6.754-1.502
		c1.99-1.476,4.254-0.713,6.361-0.594C204.436,65.06,204.379,66.167,203.461,67.08z"/>
	<path fill-rule="evenodd" clip-rule="evenodd" fill="#0A8AA2" d="M192.963,67.083c-2.025,0.043-3.924,1.116-6.002,0.737
		c2.189-2.808,5.365-1.979,8.246-2.24C194.459,66.081,193.711,66.582,192.963,67.083z"/>
	<path fill-rule="evenodd" clip-rule="evenodd" fill="#0AA5B2" d="M241.709,49.83c-3.039,1.669-6.586,1.131-9.752,2.25
		c1.725-5.626,3.449-11.252,5.281-17.235c2.32,1.988,4.736,2.906,5.969,5.234C243.459,43.444,241.354,46.448,241.709,49.83z"/>
	<path fill-rule="evenodd" clip-rule="evenodd" fill="#0B96A3" d="M216.207,55.829c2.502-3.349,2.318-7.771,4.5-11.249
		c0.25-0.228,0.498-0.24,0.748,0c1.195,2.146,3.582,2.903,5.25,4.5c0.609,1.89,2.969,2.031,3.752,3.749
		c-1.75,0.501-3.5,1.001-5.25,1.502C222.148,54.476,219.35,56.19,216.207,55.829z"/>
	<path fill-rule="evenodd" clip-rule="evenodd" fill="#0AA7B5" d="M241.709,49.83c-2.137-1.421-0.391-3.12-0.273-4.664
		c0.139-1.816,0.84-3.51,1.771-5.087c2.879,1.283,4.924,3.685,7.383,5.528c1.76,1.319,1.076,2.119-0.668,2.635
		c-1.975,0.583-4.148,0.413-5.965,1.587C243.207,49.83,242.459,49.83,241.709,49.83z"/>
	<path fill-rule="evenodd" clip-rule="evenodd" fill="#1C7F9B" d="M192.107,193.961c-0.602,0.27-0.621,0.823-0.664,1.365
		c-4.959,4.65-8.451,10.488-12.719,15.698c-0.23,0.282-0.502,0.53-0.754,0.794c-0.012-0.753-0.025-1.505-0.039-2.257
		c0.02-2.484,0.039-4.968,0.059-7.452c0.625-4.537,1.699-8.982,2.947-13.378c0.506-1.789,0.57-4.019,2.977-4.66
		c2.104-1.345,3.184-0.284,4.348,1.509c0.822,1.268,1.287,3.913,3.943,2.248C192.172,189.873,192.141,191.917,192.107,193.961z"/>
	<path fill-rule="evenodd" clip-rule="evenodd" fill="#035C7A" d="M207.957,207.33c2.277,4.399,1.801,9.386,2.941,14.033
		c0.316,1.292,0.055,2.733,0.811,3.965c-2.252,0.5-4.502,1-6.752,1.5c-2.691-1.309-4.17-3.829-5.998-6
		C201.959,216.329,204.957,211.83,207.957,207.33z"/>
	<path fill-rule="evenodd" clip-rule="evenodd" fill="#03607E" d="M198.959,220.828c2.91,1.089,4.061,3.938,5.998,6
		c-1.645,0.067-3.199,0.401-4.5,1.5c-1,0-2,0.001-3,0.001C196.939,225.625,199.475,223.532,198.959,220.828z"/>
	<path fill-rule="evenodd" clip-rule="evenodd" fill="#0D7A84" d="M123.948,27.341c2.227,0.238,4.374-0.397,6.879-0.814
		c-1.123,2.026-0.914,3.943-0.851,5.824c0.068,2.025-0.048,4.001-1.28,5.687c-1.201,1.644-0.553,2.968,0.511,4.291
		c-0.027,1.583-0.011,3.053-1,4.557c-2.039,3.101-3.484,6.299-2.332,10.397c0.512,1.822-0.104,4.397-1.918,6.045
		c-0.033-4.503-1.284-9.045,0.551-13.499c0.222-0.539-0.093-1.572-0.521-2.057c-2.026-2.302-1.822-4.974-1.53-7.694
		c0.473-3.432,2.426-6.795,0.21-10.343C121.967,28.616,123.489,28.137,123.948,27.341z"/>
	<path fill-rule="evenodd" clip-rule="evenodd" fill="#04B7BE" d="M153.957,136.829c0.25,0,0.5,0.001,0.75,0.001
		c-0.445,2.021,1.945,3.229,1.502,5.249c-9.759-3.401-19.057-7.808-28.141-12.718c-1.757-0.949-0.411-2.913-1.813-3.75
		c0.363-0.326-0.923-2.016,0.927-1.114c8.597,4.189,17.193,8.381,25.804,12.539C153.222,137.149,153.631,136.906,153.957,136.829z"
		/>
	<path fill-rule="evenodd" clip-rule="evenodd" fill="#15626B" d="M101.496,107.548c0.729,0.275,1.458,0.55,2.187,0.825
		c-0.411,3.78,0.907,7.438,0.779,11.198c0.889,1.126-0.169,2.632,0.73,3.756l0.029,0.002c0.555,1.495,0.539,2.992,0.013,4.49
		c-2.957-0.409-2.587-2.979-3.033-4.885c-0.853-3.641-2.034-7.223-2.238-10.996C99.872,110.274,100.074,108.693,101.496,107.548z"/>
	<path fill-rule="evenodd" clip-rule="evenodd" fill="#17656E" d="M105.191,123.328c-1.227-1.061-0.557-2.491-0.73-3.756
		c0.243,0.007,0.486,0.012,0.729,0.013C105.19,120.833,105.191,122.081,105.191,123.328z"/>
	<path fill-rule="evenodd" clip-rule="evenodd" fill="#0D7F89" d="M135.208,40.829c-2.659-4.2,0.496-8.395,0.013-12.593
		c-0.137-1.183,0.963-1.614,1.48-2.4c1.781-0.024,3.785-0.142,3.711,2.412c-0.247,8.542,2.854,16.77,2.296,25.332
		c1.689,2.951-0.013,5.491-1.138,7.995c-0.806,1.794-1.867,3.024-0.084,5.16c1.183,1.417,1.182,4.087-1.777,4.845
		c-0.054-0.983,0.367-2.369-0.49-2.837c-3.381-1.848-1.204-4.053-1.107-6.489c0.177-4.466,0.432-9.304-2.254-13.374
		c-0.89-1.349-0.696-2.583-0.397-3.874C135.794,43.557,136.528,42.152,135.208,40.829z"/>
	<path fill-rule="evenodd" clip-rule="evenodd" fill="#0F808A" d="M139.708,71.579c1.618-2.101,2.804-4.15-0.342-6.012
		c-1.386-0.819-0.292-1.708,0.179-2.364c2.076-2.889,3.018-6.118,3.163-9.624c1.5-0.5,3-1,4.5-1.5
		c-0.739,3.201,0.107,6.391,0.177,9.4c0.089,3.832,3.413,7.162,1.401,11.15c-0.789,1.562,1.333,1.741,2.035,2.625
		c-2.455,0.024-4.909,0.05-7.362,0.075C140.887,75.399,138.122,75.664,139.708,71.579z"/>
	<path fill-rule="evenodd" clip-rule="evenodd" fill="#036683" d="M183.914,184.072c-2.842,5.118-3.188,11.025-5.193,16.407
		c-0.207,0.558-0.486,1.088-0.732,1.631c-0.012-7.006-0.023-14.014-0.037-21.021c0.002-7.003,0.006-14.007,0.008-21.012
		c1.305,0.548,1.797,1.771,2.115,2.944c1.061,3.911,2.504,7.537,6.139,9.82C186.213,176.742,183.4,180.067,183.914,184.072z"/>
	<path fill-rule="evenodd" clip-rule="evenodd" fill="#0B98A6" d="M216.957,40.83c-0.5-0.249-1-0.499-1.5-0.749
		c-1.75-1.5-3.5-3-5.25-4.5c-0.713-0.289-1.215-0.787-1.5-1.502c0-0.25,0-0.5-0.002-0.75c0.502-0.001,1.004-0.003,1.506-0.004
		c2.93-1.063,5.98-0.696,8.996-0.748c2.064,0.386,1.555,1.932,1.184,3.101C219.756,37.687,218.902,39.65,216.957,40.83z"/>
	<path fill-rule="evenodd" clip-rule="evenodd" fill="#018F9B" d="M186.207,24.33c0.646-1.483,1.879-0.435,2.814-0.651
		C188.279,24.746,187.16,24.177,186.207,24.33z"/>
	<path fill-rule="evenodd" clip-rule="evenodd" fill="#297780" d="M78.957,134.578c-1.25,0-2.5,0-3.749,0
		c-0.397-9.372,3.44-17.792,5.894-26.533c0.855-3.048,0.505-5.795-2.65-7.763c-3.567-2.226-6.032-5.943-9.995-7.703
		c-0.49-0.389-1.657-0.456-0.723-1.522c7.61,2.748,14.641,6.692,21.73,10.518c1.501,1.265,0.682,2.401-0.288,3.395
		c-6.268,6.421-7.884,14.647-9.152,23.06C79.695,130.21,79.399,132.409,78.957,134.578z"/>
	<path fill-rule="evenodd" clip-rule="evenodd" fill="#26747D" d="M78.957,134.578c-1.97-3.157-0.168-6.441,0.423-9.293
		c1.6-7.703,2.992-15.795,9.618-21.29c1.055-0.874,0.165-1.657,0.465-2.42c1.71,0.332,3.239,1.031,4.517,2.236
		c0.055,0.809-0.303,1.463-0.848,1.995c-8.05,7.852-10.622,17.622-10.021,28.512c0.021,0.379-0.167,0.715-0.405,1.012
		c-1,0.5-2,1-3,1.5C79.458,136.079,79.208,135.329,78.957,134.578z"/>
	<path fill-rule="evenodd" clip-rule="evenodd" fill="#23717A" d="M82.707,135.329c-1.759-3.529-0.851-7.088-0.098-10.639
		c1.715-8.087,4.236-15.741,11.372-20.879c0.487,0.009,0.974,0.019,1.461,0.028c0.512,0.492,1.025,0.984,1.538,1.475
		c-1.797,3.233-5.014,5.243-6.681,8.788c-2.864,6.093-3.704,12.307-3.346,18.843c0.073,1.338,0.668,2.713-0.495,3.883
		c-1.25,0-2.5,0-3.749,0.001C82.708,136.329,82.708,135.829,82.707,135.329z"/>
	<path fill-rule="evenodd" clip-rule="evenodd" fill="#1C6A72" d="M98.47,106.072c0.496,0.004,0.992,0.008,1.487,0.011
		c0,0.245,0.005,0.489,0.015,0.733c-0.985,0.763-1.392,1.816-1.515,3.013c-3.726,4.789-4.138,10.31-3.528,16.048
		c0.512,4.817,1.897,9.416,3.528,13.952c-3.019-1.685-3.781-5.175-6-7.5c-1.125-0.393-1.47-1.321-1.477-2.366
		c-0.056-8.562,0.211-17.044,6.445-23.917C97.781,105.754,98.129,105.764,98.47,106.072z"/>
	<path fill-rule="evenodd" clip-rule="evenodd" fill="#297780" d="M105.233,127.82c-0.004-1.497-0.009-2.994-0.013-4.491
		c1.339,1.321,0.499,3,0.737,4.501C105.715,127.824,105.474,127.821,105.233,127.82z"/>
	<path fill-rule="evenodd" clip-rule="evenodd" fill="#025961" d="M36.18,103.858c0,1.452,0,2.904,0,4.355
		c-0.238,0.005-0.476,0.009-0.714,0.014c0-1.464,0-2.929,0-4.392C35.704,103.831,35.942,103.838,36.18,103.858z"/>
	<path fill-rule="evenodd" clip-rule="evenodd" fill="#0B9DA9" d="M216.957,40.83c0.172-1.817,1.736-2.929,2.303-4.563
		c0.441-1.269,1.309-2.474-0.053-3.689c1.316-1.359,3-0.504,4.5-0.75c1.492-0.048,2.299,0.189,1.688,2.101
		c-1.156,3.615-1.941,7.353-3.939,10.652l-0.375,0l-0.373,0C219.457,43.33,218.207,42.081,216.957,40.83z"/>
	<path fill-rule="evenodd" clip-rule="evenodd" fill="#1F6D75" d="M97.71,106.082c-0.145,1.424-1.014,2.472-1.731,3.645
		c-4.299,7.028-4.659,14.707-3.521,22.603c0.082,2.5-0.757,5,0,7.499c-0.5-0.749-1-1.499-1.5-2.249
		c-1.413-1.126-2.3-2.632-2.741-4.327c-1.503-5.781,0.429-20.948,7.245-26.155C96.134,106.583,96.696,105.834,97.71,106.082z"/>
	<path fill-rule="evenodd" clip-rule="evenodd" fill="#216F78" d="M97.71,106.082c-4.96,3.728-7.095,9.05-8.196,14.869
		c-1.069,5.649-1.602,11.31,1.443,16.628c-1,0.25-2,0.5-3,0.75c-0.715-0.285-1.214-0.785-1.5-1.5
		c-1.422-6.083-0.962-12.185,0.851-18.011c1.69-5.428,4.029-10.743,9.671-13.503c0.611,0.026,1.165,0.167,1.491,0.757
		C98.216,106.075,97.963,106.079,97.71,106.082z"/>
	<path fill-rule="evenodd" clip-rule="evenodd" fill="#0B9492" d="M30.957,183.329c-1.36-1.314-0.508-2.998-0.75-4.5
		C31.568,180.143,30.714,181.827,30.957,183.329z"/>
	<path fill-rule="evenodd" clip-rule="evenodd" fill="#0AA39F" d="M24.21,192.33c-0.001-2-0.004-3.999-0.006-5.999
		c2.39-1.014,4.41,1.32,6.751,0.749c0.25,0.25,0.499,0.501,0.749,0.751c0.002,1.5,0.004,2.998,0.006,4.496
		c0.207,0.169,0.275,0.336,0.205,0.503c-0.069,0.167-0.139,0.25-0.208,0.25C29.004,194.862,26.77,191.975,24.21,192.33z"/>
	<path fill-rule="evenodd" clip-rule="evenodd" fill="#0B9F99" d="M31.707,193.08c0.001-0.251,0.002-0.501,0.003-0.753
		c0.927,1.082,0.71,3.521,3.429,2.452c1.107-0.437,0.861,1.617,1.806,2.04c0.004,1.208-0.161,2.445,0.044,3.619
		c0.548,3.137-1.092,3.98-3.777,3.889c-0.252-1.999-0.505-3.998-0.757-5.997C32.205,196.58,31.956,194.83,31.707,193.08z"/>
</g>
</svg>
