<?xml version="1.0" encoding="utf-8"?>
<!-- Generator: Adobe Illustrator 16.0.0, SVG Export Plug-In . SVG Version: 6.00 Build 0)  -->
<!DOCTYPE svg PUBLIC "-//W3C//DTD SVG 1.1//EN" "http://www.w3.org/Graphics/SVG/1.1/DTD/svg11.dtd">
<svg version="1.1" id="Capa_1" focusable="false" xmlns="http://www.w3.org/2000/svg" xmlns:xlink="http://www.w3.org/1999/xlink"
	 x="0px" y="0px" width="612px" height="792px" viewBox="0 0 612 792" enable-background="new 0 0 612 792" xml:space="preserve">
<path fill="#397FC4" d="M612,123.742v544.38c0,18.715-15.164,33.742-33.742,33.742H422.252V464.987h79.506l11.885-92.347h-91.527
	v-59.015c0-26.774,7.377-44.943,45.764-44.943h48.905v-82.647c-8.47-1.093-37.43-3.688-71.309-3.688
	c-70.489,0-118.849,43.031-118.849,122.127v68.167h-79.778v92.347h79.778v237.014H33.742C15.163,702.001,0,686.837,0,668.259
	V123.742C0,105.164,15.163,90,33.742,90h544.379C596.836,90,612,105.164,612,123.742z"/>
</svg>
