<?xml version="1.0" encoding="utf-8"?>
<!-- Generator: Adobe Illustrator 16.0.0, SVG Export Plug-In . SVG Version: 6.00 Build 0)  -->
<!DOCTYPE svg PUBLIC "-//W3C//DTD SVG 1.1//EN" "http://www.w3.org/Graphics/SVG/1.1/DTD/svg11.dtd">
<svg version="1.1" id="Capa_1" focusable="false" xmlns="http://www.w3.org/2000/svg" xmlns:xlink="http://www.w3.org/1999/xlink"
	 x="0px" y="0px" width="612px" height="792px" viewBox="0 0 612 792" enable-background="new 0 0 612 792" xml:space="preserve">
<path fill="#EDF5E0" d="M306.136,238.902c-86.882,0-156.961,70.079-156.961,156.961c0,86.883,70.079,156.962,156.961,156.962
	c86.883,0,156.962-70.079,156.962-156.962C463.098,308.981,393.019,238.902,306.136,238.902z M306.136,497.909
	c-56.145,0-102.045-45.764-102.045-102.046c0-56.282,45.764-102.045,102.045-102.045c56.282,0,102.046,45.763,102.046,102.045
	C408.182,452.146,362.281,497.909,306.136,497.909L306.136,497.909z M506.129,232.481c0,20.354-16.393,36.61-36.61,36.61
	c-20.354,0-36.61-16.393-36.61-36.61c0-20.217,16.394-36.61,36.61-36.61C489.736,195.871,506.129,212.263,506.129,232.481z
	 M610.087,269.638c-2.322-49.042-13.523-92.483-49.452-128.274c-35.791-35.791-79.23-46.992-128.272-49.451
	c-50.545-2.869-202.042-2.869-252.587,0c-48.905,2.322-92.346,13.523-128.273,49.314C15.575,177.018,4.508,220.46,2.049,269.502
	c-2.869,50.545-2.869,202.042,0,252.587c2.322,49.042,13.524,92.483,49.452,128.274c35.928,35.791,79.231,46.991,128.273,49.45
	c50.545,2.869,202.042,2.869,252.587,0c49.042-2.321,92.481-13.522,128.272-49.45c35.792-35.791,46.993-79.232,49.452-128.274
	C612.956,471.544,612.956,320.183,610.087,269.638z M544.789,576.322c-10.655,26.773-31.283,47.401-58.195,58.193
	c-40.299,15.983-135.924,12.295-180.458,12.295c-44.533,0-140.295,3.553-180.457-12.295c-26.775-10.654-47.403-31.282-58.195-58.193
	c-15.982-40.3-12.294-135.925-12.294-180.459c0-44.533-3.552-140.295,12.294-180.458c10.655-26.774,31.283-47.402,58.195-58.194
	c40.299-15.983,135.924-12.295,180.457-12.295c44.534,0,140.296-3.552,180.458,12.295c26.775,10.655,47.403,31.283,58.195,58.194
	c15.981,40.3,12.294,135.925,12.294,180.458C557.083,440.397,560.772,536.159,544.789,576.322z"/>
</svg>
